<?xml version="1.0" encoding="UTF-8" standalone="no"?>
<svg width="1310px" height="397px" viewBox="0 0 1310 397" version="1.1" xmlns="http://www.w3.org/2000/svg" xmlns:xlink="http://www.w3.org/1999/xlink" xmlns:sketch="http://www.bohemiancoding.com/sketch/ns">
    <!-- Generator: Sketch 3.4.2 (15857) - http://www.bohemiancoding.com/sketch -->
    <title>academy</title>
    <desc>Created with Sketch.</desc>
    <defs></defs>
    <g id="Page-1" stroke="none" stroke-width="1" fill="none" fill-rule="evenodd" sketch:type="MSPage">
        <g id="academy" sketch:type="MSArtboardGroup" stroke-linejoin="round" stroke="#FFFFFF" opacity="0.25">
            <g sketch:type="MSLayerGroup">
                <path d="M156.9652,143.0002 L156.9652,143.9792 C156.9652,144.8082 157.6352,145.5002 158.4652,145.5002 L166.4652,145.5002 C167.2932,145.5002 167.9652,144.8082 167.9652,143.9792 L167.9652,138.0002 C167.9652,137.1712 167.2932,136.5002 166.4652,136.5002 L158.4652,136.5002 C157.6352,136.5002 156.9652,137.1712 156.9652,138.0002 L156.9652,143.0002 L156.9652,143.0002 Z" id="Stroke-24" stroke-linecap="round" sketch:type="MSShapeGroup"></path>
                <path d="M156.9652,142.5002 L167.9652,142.5002" id="Stroke-25" stroke-linecap="round" sketch:type="MSShapeGroup"></path>
                <path d="M160.4652,147.5002 L164.4652,147.5002" id="Stroke-26" stroke-linecap="round" sketch:type="MSShapeGroup"></path>
                <path d="M162.4652,145.5002 L162.4652,147.5002" id="Stroke-27" stroke-linecap="round" sketch:type="MSShapeGroup"></path>
                <path d="M148.8109,131.8322 C151.1359,133.5732 154.4039,133.1022 156.1439,130.7772 L147.7559,124.5002 C146.0159,126.8252 146.4869,130.0932 148.8109,131.8322 L148.8109,131.8322 Z" id="Stroke-28" stroke-linecap="round" sketch:type="MSShapeGroup"></path>
                <path d="M153.389,125.7151 L151.95,127.6391" id="Stroke-29" stroke-linecap="round" sketch:type="MSShapeGroup"></path>
                <path d="M148.3158,131.4119 L144.9698,135.4999 L151.6618,135.4999 L148.3158,131.4119 L148.3158,131.4119 Z" id="Stroke-30" stroke-linecap="round" sketch:type="MSShapeGroup"></path>
                <path d="M156.4652,127.5002 L162.9702,127.5002 L162.9702,133.9562" id="Stroke-31" stroke-linecap="round" sketch:type="MSShapeGroup"></path>
                <path d="M154.4652,144.5002 L147.9702,144.5002 L147.9702,137.9562" id="Stroke-32" stroke-linecap="round" sketch:type="MSShapeGroup"></path>
                <path d="M736.2539,137.5 L739.4999,137.5 L739.4999,134.5 L736.2529,134.5 C736.0439,133.633 735.7019,132.319 735.2499,131.578 L737.5459,129.283 L734.7169,126.454 L732.4199,128.75 C731.6799,128.298 730.3669,127.957 729.4999,127.748 L729.4999,124.5 L726.4999,124.5 L726.4999,127.748 C725.6329,127.957 724.3189,128.298 723.5789,128.75 L721.2819,126.454 L718.4529,129.283 L720.7499,131.579 C720.2979,132.319 719.9559,133.633 719.7459,134.5 L716.4999,134.5 L716.4999,137.5 L719.7459,137.5 C719.9559,138.367 720.2979,139.681 720.7499,140.421 L718.4529,142.718 L721.2819,145.546 L723.5779,143.249 C724.3189,143.702 725.6329,144.044 726.4999,144.254 L726.4999,147.5 L729.4999,147.5 L729.4999,144.254 C730.3669,144.044 731.6809,143.702 732.4199,143.25 L734.7179,145.546 L737.5459,142.718 L735.2499,140.421 C735.7019,139.681 736.0439,138.367 736.2539,137.5 L736.2539,137.5 Z" id="Stroke-814" stroke-linecap="round" sketch:type="MSShapeGroup"></path>
                <path d="M732.5,136 C732.5,138.486 730.485,140.5 728,140.5 C725.515,140.5 723.5,138.486 723.5,136 C723.5,133.515 725.515,131.5 728,131.5 C730.485,131.5 732.5,133.515 732.5,136 L732.5,136 Z" id="Stroke-815" stroke-linecap="round" sketch:type="MSShapeGroup"></path>
                <path d="M305.5,130.9756 C305.5,134.5796 302.582,137.4996 298.982,137.4996 C295.383,137.4996 292.5,134.4616 292.5,130.8586 C292.5,127.3496 295.253,124.6456 298.721,124.5056 C298.814,124.5016 298.908,124.4996 299.003,124.4996 C302.602,124.4996 305.5,127.3716 305.5,130.9756 L305.5,130.9756 Z" id="Stroke-1778" sketch:type="MSShapeGroup"></path>
                <path d="M298.7207,124.5059 C295.3287,128.1799 295.3287,132.9729 298.7207,137.4949" id="Stroke-1779" sketch:type="MSShapeGroup"></path>
                <path d="M299.2852,124.5059 C302.6772,128.1799 302.6772,132.9719 299.2852,137.4929" id="Stroke-1780" sketch:type="MSShapeGroup"></path>
                <path d="M293.5742,134.5 L304.4682,134.5" id="Stroke-1781" sketch:type="MSShapeGroup"></path>
                <path d="M293.4531,127.5 L304.4961,127.5" id="Stroke-1782" sketch:type="MSShapeGroup"></path>
                <path d="M292.5,131 L305.5,131" id="Stroke-1783" sketch:type="MSShapeGroup"></path>
                <path d="M294,141.0146 C294,142.3956 292.881,143.5146 291.5,143.5146 C290.118,143.5146 289,142.3956 289,141.0146 C289,139.6336 290.118,138.5146 291.5,138.5146 C292.881,138.5146 294,139.6336 294,141.0146 L294,141.0146 Z" id="Stroke-1784" stroke-linecap="round" sketch:type="MSShapeGroup"></path>
                <path d="M301.5,141.0146 C301.5,142.3956 300.381,143.5146 299,143.5146 C297.618,143.5146 296.5,142.3956 296.5,141.0146 C296.5,139.6336 297.618,138.5146 299,138.5146 C300.381,138.5146 301.5,139.6336 301.5,141.0146 L301.5,141.0146 Z" id="Stroke-1785" stroke-linecap="round" sketch:type="MSShapeGroup"></path>
                <path d="M309,141.0146 C309,142.3956 307.881,143.5146 306.5,143.5146 C305.118,143.5146 304,142.3956 304,141.0146 C304,139.6336 305.118,138.5146 306.5,138.5146 C307.881,138.5146 309,139.6336 309,141.0146 L309,141.0146 Z" id="Stroke-1786" stroke-linecap="round" sketch:type="MSShapeGroup"></path>
                <path d="M306.5,143.5068 C304.767,143.5068 303.306,144.6188 302.75,146.1608 C302.194,144.6188 300.733,143.5128 299,143.5128 C297.267,143.5128 295.806,144.6218 295.25,146.1628 C294.694,144.6218 293.233,143.5068 291.5,143.5068 C289.29,143.5068 287.5,145.4998 287.5,147.4998 L310.5,147.4998 C310.5,145.4998 308.71,143.5068 306.5,143.5068 L306.5,143.5068 Z" id="Stroke-1787" stroke-linecap="round" sketch:type="MSShapeGroup"></path>
                <path d="M1291.5,132.4932 C1291.5,133.0442 1291.947,133.4932 1292.5,133.4932 L1293.5,133.4932 L1296.5,136.4932 L1296.5,133.4932 L1303.5,133.4932 C1304.052,133.4932 1304.5,133.0442 1304.5,132.4932 L1304.5,125.4932 C1304.5,124.9412 1304.052,124.4932 1303.5,124.4932 L1292.5,124.4932 C1291.947,124.4932 1291.5,124.9412 1291.5,125.4932 L1291.5,132.4932 L1291.5,132.4932 Z" id="Stroke-1797" stroke-linecap="round" sketch:type="MSShapeGroup"></path>
                <path d="M1308,138.0073 C1308,139.3883 1306.881,140.5073 1305.5,140.5073 C1304.118,140.5073 1303,139.3883 1303,138.0073 C1303,136.6263 1304.118,135.5073 1305.5,135.5073 C1306.881,135.5073 1308,136.6263 1308,138.0073 L1308,138.0073 Z" id="Stroke-1798" stroke-linecap="round" sketch:type="MSShapeGroup"></path>
                <path d="M1309.5,144.5073 L1301.5,144.5073 C1301.5,142.2993 1303.29,140.5073 1305.5,140.5073 C1307.71,140.5073 1309.5,142.2993 1309.5,144.5073 L1309.5,144.5073 Z" id="Stroke-1799" stroke-linecap="round" sketch:type="MSShapeGroup"></path>
                <path d="M1293,138.0073 C1293,139.3883 1291.881,140.5073 1290.5,140.5073 C1289.118,140.5073 1288,139.3883 1288,138.0073 C1288,136.6263 1289.118,135.5073 1290.5,135.5073 C1291.881,135.5073 1293,136.6263 1293,138.0073 L1293,138.0073 Z" id="Stroke-1800" stroke-linecap="round" sketch:type="MSShapeGroup"></path>
                <path d="M1294.5,144.5073 L1286.5,144.5073 C1286.5,142.2993 1288.29,140.5073 1290.5,140.5073 C1292.71,140.5073 1294.5,142.2993 1294.5,144.5073 L1294.5,144.5073 Z" id="Stroke-1801" stroke-linecap="round" sketch:type="MSShapeGroup"></path>
                <path d="M1300.5,141.0073 C1300.5,142.3883 1299.381,143.5073 1298,143.5073 C1296.618,143.5073 1295.5,142.3883 1295.5,141.0073 C1295.5,139.6263 1296.618,138.5073 1298,138.5073 C1299.381,138.5073 1300.5,139.6263 1300.5,141.0073 L1300.5,141.0073 Z" id="Stroke-1802" stroke-linecap="round" sketch:type="MSShapeGroup"></path>
                <path d="M1302,147.5073 L1294,147.5073 C1294,145.2993 1295.79,143.5073 1298,143.5073 C1300.21,143.5073 1302,145.2993 1302,147.5073 L1302,147.5073 Z" id="Stroke-1803" stroke-linecap="round" sketch:type="MSShapeGroup"></path>
                <path d="M1294.5,126.4932 L1301.469,126.4932" id="Stroke-1804" stroke-linecap="round" sketch:type="MSShapeGroup"></path>
                <path d="M1294.5,128.4932 L1301.469,128.4932" id="Stroke-1805" stroke-linecap="round" sketch:type="MSShapeGroup"></path>
                <path d="M1294.5,130.4932 L1301.469,130.4932" id="Stroke-1806" stroke-linecap="round" sketch:type="MSShapeGroup"></path>
                <path d="M19.5,142.527398 C19.5,143.077398 19.05,143.527398 18.5,143.527398 L5.5,143.527398 C4.95,143.527398 4.5,143.077398 4.5,142.527398 L4.5,129.527398 C4.5,128.977398 4.95,128.527398 5.5,128.527398 L18.5,128.527398 C19.05,128.527398 19.5,128.977398 19.5,129.527398 L19.5,142.527398 L19.5,142.527398 Z" id="Stroke-948" stroke-linecap="round" sketch:type="MSShapeGroup"></path>
                <path d="M11.5,124.527398 L11.5,128.527398" id="Stroke-949" stroke-linecap="round" sketch:type="MSShapeGroup"></path>
                <path d="M7.5,124.527398 L7.5,128.527398" id="Stroke-950" stroke-linecap="round" sketch:type="MSShapeGroup"></path>
                <path d="M16.5,124.527398 L16.5,128.527398" id="Stroke-951" stroke-linecap="round" sketch:type="MSShapeGroup"></path>
                <path d="M0.5,136.527398 L4.5,136.527398" id="Stroke-952" stroke-linecap="round" sketch:type="MSShapeGroup"></path>
                <path d="M0.5,140.527398 L4.5,140.527398" id="Stroke-953" stroke-linecap="round" sketch:type="MSShapeGroup"></path>
                <path d="M0.5,131.527398 L4.5,131.527398" id="Stroke-954" stroke-linecap="round" sketch:type="MSShapeGroup"></path>
                <path d="M12.5,147.527398 L12.5,143.527398" id="Stroke-955" stroke-linecap="round" sketch:type="MSShapeGroup"></path>
                <path d="M16.5,147.527398 L16.5,143.527398" id="Stroke-956" stroke-linecap="round" sketch:type="MSShapeGroup"></path>
                <path d="M7.5,147.527398 L7.5,143.527398" id="Stroke-957" stroke-linecap="round" sketch:type="MSShapeGroup"></path>
                <path d="M23.5,135.527398 L19.5,135.527398" id="Stroke-958" stroke-linecap="round" sketch:type="MSShapeGroup"></path>
                <path d="M23.5,131.527398 L19.5,131.527398" id="Stroke-959" stroke-linecap="round" sketch:type="MSShapeGroup"></path>
                <path d="M23.5,140.527398 L19.5,140.527398" id="Stroke-960" stroke-linecap="round" sketch:type="MSShapeGroup"></path>
                <path d="M17.5,139.527398 C17.5,140.628398 16.6,141.527398 15.5,141.527398 L8.5,141.527398 C7.4,141.527398 6.5,140.628398 6.5,139.527398 L6.5,132.527398 C6.5,131.427398 7.4,130.527398 8.5,130.527398 L15.5,130.527398 C16.6,130.527398 17.5,131.427398 17.5,132.527398 L17.5,139.527398 L17.5,139.527398 Z" id="Stroke-961" stroke-linecap="round" sketch:type="MSShapeGroup"></path>
                <path d="M14.6855,138.027398 L14.6855,134.111398 L12.9565,136.601398 L15.0005,136.601398" id="Stroke-962" stroke-linecap="round" sketch:type="MSShapeGroup"></path>
                <path d="M10.5,135.714898 C11.37,135.714898 11.522,136.456898 11.522,136.868898 C11.522,137.282898 11.37,138.027898 10.5,138.027898 C9.63,138.027898 9.478,137.282898 9.478,136.868898 C9.478,136.456898 9.63,135.714898 10.5,135.714898 L10.5,135.714898 Z" id="Stroke-963" stroke-linecap="round" sketch:type="MSShapeGroup"></path>
                <path d="M10.9873,134.068398 C9.7023,134.068398 9.4783,135.168398 9.4783,135.777398 L9.4783,136.869398" id="Stroke-964" stroke-linecap="round" sketch:type="MSShapeGroup"></path>
                <path d="M595.5,137 C595.5,143.352 590.352,148.5 584,148.5 C577.648,148.5 572.5,143.352 572.5,137 C572.5,130.648 577.648,125.5 584,125.5 C590.352,125.5 595.5,130.648 595.5,137 L595.5,137 Z" id="Stroke-4111" sketch:type="MSShapeGroup"></path>
                <path d="M580.9619,128.2388 C580.7549,127.5288 580.6129,126.7898 580.5459,126.0298" id="Stroke-4112" sketch:type="MSShapeGroup"></path>
                <path d="M589.6904,136.2676 C586.8354,135.6856 584.3664,134.0476 582.7084,131.7776" id="Stroke-4113" sketch:type="MSShapeGroup"></path>
                <path d="M595.5,135.9292 C594.898,136.1262 594.363,136.2762 593.721,136.3722" id="Stroke-4114" sketch:type="MSShapeGroup"></path>
                <path d="M587.46,143.1816 C585.654,145.2346 583.522,146.9456 581.176,148.2656" id="Stroke-4115" sketch:type="MSShapeGroup"></path>
                <path d="M590.8203,138.2388 C590.3723,139.1168 589.8753,140.0388 589.3343,140.8408" id="Stroke-4116" sketch:type="MSShapeGroup"></path>
                <path d="M593.2891,130.2187 C593.1141,131.6787 592.8191,133.0967 592.3631,134.5487" id="Stroke-4117" sketch:type="MSShapeGroup"></path>
                <path d="M575.7939,141.5962 C574.9919,141.4092 574.0189,141.1952 573.2529,140.9582" id="Stroke-4118" sketch:type="MSShapeGroup"></path>
                <path d="M582.4541,142.5088 C580.7861,142.4408 579.2391,142.2628 577.7091,141.9998" id="Stroke-4119" sketch:type="MSShapeGroup"></path>
                <path d="M586.9775,142.4365 C586.4595,142.4735 586.0125,142.5015 585.5005,142.5185" id="Stroke-4120" sketch:type="MSShapeGroup"></path>
                <path d="M594.6055,141.166 C593.0185,141.595 591.5155,141.902 589.9185,142.128" id="Stroke-4121" sketch:type="MSShapeGroup"></path>
                <path d="M579.6475,129.8164 C579.5355,129.7884 579.4215,129.7584 579.3085,129.7274 C578.2215,129.4244 577.2155,128.9754 576.3045,128.4074" id="Stroke-4122" sketch:type="MSShapeGroup"></path>
                <path d="M590.0752,127.2344 C588.3192,128.7744 586.0352,129.8164 583.6842,130.0824" id="Stroke-4123" sketch:type="MSShapeGroup"></path>
                <path d="M584.874,143.6572 C585.685,144.9182 586.663,146.5822 587.142,148.0332" id="Stroke-4124" sketch:type="MSShapeGroup"></path>
                <path d="M579.54,138.3691 C580.697,139.0911 582.09,140.3181 583.053,141.2761" id="Stroke-4125" sketch:type="MSShapeGroup"></path>
                <path d="M572.5615,135.8228 C573.7285,135.9898 574.7895,136.2678 575.8725,136.6458" id="Stroke-4126" sketch:type="MSShapeGroup"></path>
                <path d="M576.334,142.9268 C576.06,143.4548 575.675,144.0848 575.33,144.5668" id="Stroke-4127" sketch:type="MSShapeGroup"></path>
                <path d="M577.4717,139.439 C577.3827,139.967 577.2607,140.581 577.1067,141.082" id="Stroke-4128" sketch:type="MSShapeGroup"></path>
                <path d="M575.0244,129.7744 C576.2854,131.3824 577.1544,133.3114 577.4894,135.4184" id="Stroke-4129" sketch:type="MSShapeGroup"></path>
                <path d="M583.6875,130.126 C583.6875,131.23 582.7915,132.126 581.6875,132.126 C580.5835,132.126 579.6875,131.23 579.6875,130.126 C579.6875,129.021 580.5835,128.126 581.6875,128.126 C582.7915,128.126 583.6875,129.021 583.6875,130.126 L583.6875,130.126 Z" id="Stroke-4130" sketch:type="MSShapeGroup"></path>
                <path d="M579.709,137.438 C579.709,138.542 578.813,139.438 577.709,139.438 C576.605,139.438 575.709,138.542 575.709,137.438 C575.709,136.334 576.605,135.438 577.709,135.438 C578.813,135.438 579.709,136.334 579.709,137.438 L579.709,137.438 Z" id="Stroke-4131" sketch:type="MSShapeGroup"></path>
                <path d="M577.709,142 C577.709,142.552 577.261,143 576.709,143 C576.156,143 575.709,142.552 575.709,142 C575.709,141.449 576.156,141 576.709,141 C577.261,141 577.709,141.449 577.709,142 L577.709,142 Z" id="Stroke-4132" sketch:type="MSShapeGroup"></path>
                <path d="M585.5,142.438 C585.5,143.266 584.829,143.938 584,143.938 C583.171,143.938 582.5,143.266 582.5,142.438 C582.5,141.61 583.171,140.938 584,140.938 C584.829,140.938 585.5,141.61 585.5,142.438 L585.5,142.438 Z" id="Stroke-4133" sketch:type="MSShapeGroup"></path>
                <path d="M589.9219,142.0312 C589.9219,142.8602 589.2509,143.5312 588.4219,143.5312 C587.5939,143.5312 586.9219,142.8602 586.9219,142.0312 C586.9219,141.2032 587.5939,140.5312 588.4219,140.5312 C589.2509,140.5312 589.9219,141.2032 589.9219,142.0312 L589.9219,142.0312 Z" id="Stroke-4134" sketch:type="MSShapeGroup"></path>
                <path d="M593.709,136.438 C593.709,137.542 592.813,138.438 591.709,138.438 C590.605,138.438 589.709,137.542 589.709,136.438 C589.709,135.334 590.605,134.438 591.709,134.438 C592.813,134.438 593.709,135.334 593.709,136.438 L593.709,136.438 Z" id="Stroke-4135" sketch:type="MSShapeGroup"></path>
                <path d="M439.5,137.5 L428.5,132.5 L428.5,140.5 L439.5,145.5 L439.5,137.5 L439.5,137.5 Z" id="Stroke-200" stroke-linecap="round" sketch:type="MSShapeGroup"></path>
                <path d="M451.5,132.5 L439.5,137.5 L439.5,145.5 L451.5,140.5 L451.5,132.5 L451.5,132.5 Z" id="Stroke-201" stroke-linecap="round" sketch:type="MSShapeGroup"></path>
                <path d="M443,133 C443,133.828 441.656,134.5 440,134.5 C438.343,134.5 437,133.828 437,133 C437,132.172 438.343,131.5 440,131.5 C441.656,131.5 443,132.172 443,133 L443,133 Z" id="Stroke-202" stroke-linecap="round" sketch:type="MSShapeGroup"></path>
                <path d="M443,127.5 C443,128.328 441.656,129 440,129 C438.343,129 437,128.328 437,127.5 C437,126.672 438.343,126 440,126 C441.656,126 443,126.672 443,127.5 L443,127.5 Z" id="Stroke-203" stroke-linecap="round" sketch:type="MSShapeGroup"></path>
                <path d="M450,130.5 C450,131.328 448.656,132 447,132 C445.343,132 444,131.328 444,130.5 C444,129.672 445.343,129 447,129 C448.656,129 450,129.672 450,130.5 L450,130.5 Z" id="Stroke-204" stroke-linecap="round" sketch:type="MSShapeGroup"></path>
                <path d="M436.5,130.5 C436.5,131.328 435.156,132 433.5,132 C431.843,132 430.5,131.328 430.5,130.5 C430.5,129.672 431.843,129 433.5,129 C435.156,129 436.5,129.672 436.5,130.5 L436.5,130.5 Z" id="Stroke-205" stroke-linecap="round" sketch:type="MSShapeGroup"></path>
                <path d="M431.0742,131.3809 L428.5002,132.4999" id="Stroke-206" stroke-linecap="round" sketch:type="MSShapeGroup"></path>
                <path d="M437.7373,128.4844 L435.5823,129.4214" id="Stroke-207" stroke-linecap="round" sketch:type="MSShapeGroup"></path>
                <path d="M444.6943,129.541 L442.2603,128.483" id="Stroke-208" stroke-linecap="round" sketch:type="MSShapeGroup"></path>
                <path d="M451.5,132.5 L449.2,131.5" id="Stroke-209" stroke-linecap="round" sketch:type="MSShapeGroup"></path>
                <path d="M582.5,17.5317 C582.5,20.2927 580.262,22.5317 577.5,22.5317 C574.738,22.5317 572.5,20.2927 572.5,17.5317 C572.5,14.7697 574.738,12.5317 577.5,12.5317 C580.262,12.5317 582.5,14.7697 582.5,17.5317 L582.5,17.5317 Z" id="Stroke-321" stroke-linecap="round" sketch:type="MSShapeGroup"></path>
                <path d="M582.5,6.0317 L582.5,2.0317 C581.75,1.2817 580.25,1.2817 579.5,2.0317 L578,6.0317 L576.5,7.5317 L573.5,14.5317" id="Stroke-322" stroke-linecap="round" sketch:type="MSShapeGroup"></path>
                <path d="M585.5,17.5317 C585.5,20.2927 587.738,22.5317 590.5,22.5317 C593.262,22.5317 595.5,20.2927 595.5,17.5317 C595.5,14.7697 593.262,12.5317 590.5,12.5317 C587.738,12.5317 585.5,14.7697 585.5,17.5317 L585.5,17.5317 Z" id="Stroke-323" stroke-linecap="round" sketch:type="MSShapeGroup"></path>
                <path d="M585.5,6.0317 L585.5,2.0947 C586.25,1.3447 587.75,1.3447 588.5,2.0947 L590,6.0317 L591.5,7.5317 L594.5,14.5317" id="Stroke-324" stroke-linecap="round" sketch:type="MSShapeGroup"></path>
                <path d="M580,10.0317 C580,8.9267 581.791,8.0317 584,8.0317 C586.209,8.0317 588,8.9267 588,10.0317" id="Stroke-325" stroke-linecap="round" sketch:type="MSShapeGroup"></path>
                <path d="M582.5,17.5317 L582.5,8.1767" id="Stroke-326" stroke-linecap="round" sketch:type="MSShapeGroup"></path>
                <path d="M585.5,17.5317 L585.5,8.1767" id="Stroke-327" stroke-linecap="round" sketch:type="MSShapeGroup"></path>
                <path d="M574.5,17.5317 C574.5,15.8757 575.844,14.5317 577.5,14.5317" id="Stroke-328" stroke-linecap="round" sketch:type="MSShapeGroup"></path>
                <path d="M587.5,17.5317 C587.5,15.8757 588.844,14.5317 590.5,14.5317" id="Stroke-329" stroke-linecap="round" sketch:type="MSShapeGroup"></path>
                <path d="M160.4199,19.25 L162.7179,21.546 L165.5459,18.718 L163.2499,16.421 C163.7019,15.681 164.0439,14.367 164.2539,13.5 L167.4999,13.5 L167.4999,10.5 L164.2529,10.5 C164.0439,9.633 163.7019,8.319 163.2499,7.578 L165.5459,5.283 L162.7169,2.454 L160.4199,4.75 C159.6799,4.298 158.3669,3.956 157.4999,3.748 L157.4999,0.5 L154.4999,0.5 L154.4999,3.748 C153.6329,3.956 152.3189,4.298 151.5789,4.75 L149.2819,2.454 L146.4529,5.283 L148.7499,7.579 C148.2979,8.319 147.9559,9.633 147.7459,10.5 L144.4999,10.5 L144.4999,13.5 L147.7459,13.5 C147.9559,14.367 148.2979,15.681 148.7499,16.421 L146.4529,18.718 L149.2819,21.546 L151.5779,19.249" id="Stroke-1118" stroke-linecap="round" sketch:type="MSShapeGroup"></path>
                <path d="M154.5,20.5 L157.5,20.5" id="Stroke-1119" stroke-linecap="round" sketch:type="MSShapeGroup"></path>
                <path d="M154.5,22.5 L157.5,22.5" id="Stroke-1120" stroke-linecap="round" sketch:type="MSShapeGroup"></path>
                <path d="M156,22.5 L156,23.5" id="Stroke-1121" stroke-linecap="round" sketch:type="MSShapeGroup"></path>
                <path d="M161.8691,12.0439 C161.8691,8.9819 159.2411,6.4999 156.0001,6.4999 C152.7581,6.4999 150.1311,8.9819 150.1311,12.0439 C150.1311,14.5689 152.0531,16.6989 154.5001,17.3669 L154.5001,18.4999 L157.5001,18.4999 L157.5001,17.3669 C159.9471,16.6989 161.8691,14.5689 161.8691,12.0439 L161.8691,12.0439 Z" id="Stroke-1122" stroke-linecap="round" sketch:type="MSShapeGroup"></path>
                <path d="M717.5,12.5 L726.5,12.5" id="Stroke-832" stroke-linecap="round" sketch:type="MSShapeGroup"></path>
                <path d="M729.5,12.5 L738.5,12.5" id="Stroke-833" stroke-linecap="round" sketch:type="MSShapeGroup"></path>
                <path d="M738.5,7.5 L717.5,7.5 L717.5,21.5 L738.5,21.5 L738.5,7.5 Z" id="Stroke-834" sketch:type="MSShapeGroup"></path>
                <path d="M729.5,15.5 L726.5,15.5 L726.5,11.5 L729.5,11.5 L729.5,15.5 Z" id="Stroke-835" sketch:type="MSShapeGroup"></path>
                <path d="M724,7.5 C724,5.291 725.789,3.5 728,3.5 C730.209,3.5 732,5.291 732,7.5" id="Stroke-836" sketch:type="MSShapeGroup"></path>
                <path d="M1143.5,0.5 L1165.5,0.5 L1165.5,23.5 L1143.5,23.5 L1143.5,0.5 Z" id="Stroke-816" stroke-linecap="round" sketch:type="MSShapeGroup"></path>
                <path d="M1154.5,14.5 L1154.5,7.5" id="Stroke-817" stroke-linecap="round" sketch:type="MSShapeGroup"></path>
                <path d="M1160.5312,14.5 L1160.5312,12.5" id="Stroke-818" stroke-linecap="round" sketch:type="MSShapeGroup"></path>
                <path d="M1148.5,8.5 L1148.5,3.5" id="Stroke-819" stroke-linecap="round" sketch:type="MSShapeGroup"></path>
                <path d="M1148.5,14.5 L1148.5,10.5" id="Stroke-820" stroke-linecap="round" sketch:type="MSShapeGroup"></path>
                <path d="M1160.5312,10.5 L1160.5312,3.5" id="Stroke-821" stroke-linecap="round" sketch:type="MSShapeGroup"></path>
                <path d="M1154.5,5.5 L1154.5,3.5" id="Stroke-822" stroke-linecap="round" sketch:type="MSShapeGroup"></path>
                <path d="M1158.531,10.5 L1162.531,10.5 L1162.531,12.5 L1158.531,12.5 L1158.531,10.5 Z" id="Stroke-823" stroke-linecap="round" sketch:type="MSShapeGroup"></path>
                <path d="M1152.5,5.5 L1156.5,5.5 L1156.5,7.5 L1152.5,7.5 L1152.5,5.5 Z" id="Stroke-824" stroke-linecap="round" sketch:type="MSShapeGroup"></path>
                <path d="M1146.5,8.5 L1150.5,8.5 L1150.5,10.5 L1146.5,10.5 L1146.5,8.5 Z" id="Stroke-825" stroke-linecap="round" sketch:type="MSShapeGroup"></path>
                <path d="M1159.042,19 C1159.042,18.173 1159.714,17.5 1160.542,17.5 C1161.37,17.5 1162.042,18.173 1162.042,19 C1162.042,19.829 1161.37,20.5 1160.542,20.5 C1159.714,20.5 1159.042,19.829 1159.042,19 L1159.042,19 Z" id="Stroke-826" stroke-linecap="round" sketch:type="MSShapeGroup"></path>
                <path d="M1153,19 C1153,18.173 1153.672,17.5 1154.5,17.5 C1155.328,17.5 1156,18.173 1156,19 C1156,19.829 1155.328,20.5 1154.5,20.5 C1153.672,20.5 1153,19.829 1153,19 L1153,19 Z" id="Stroke-827" stroke-linecap="round" sketch:type="MSShapeGroup"></path>
                <path d="M1147,19 C1147,18.173 1147.672,17.5 1148.5,17.5 C1149.328,17.5 1150,18.173 1150,19 C1150,19.829 1149.328,20.5 1148.5,20.5 C1147.672,20.5 1147,19.829 1147,19 L1147,19 Z" id="Stroke-828" stroke-linecap="round" sketch:type="MSShapeGroup"></path>
                <path d="M436.2539,17.8672 L445.8669,8.2542 C447.3229,8.8702 449.0679,8.5882 450.2559,7.4002 C451.4429,6.2142 451.7249,4.5422 451.1079,3.0862 L449.1949,5.0752 L447.0739,5.0752 L447.0739,2.8042 L448.9889,0.8902 C447.5309,0.2742 445.7849,0.5572 444.5989,1.7452 C443.4119,2.9312 443.1289,4.6772 443.7439,6.1332 L434.1329,15.7462 C432.6769,15.1302 430.9309,15.4122 429.7439,16.5992 C428.5579,17.7862 428.2749,19.5322 428.8909,20.9882 L430.8049,19.0752 L433.0739,19.0752 L433.0739,21.1952 L431.0859,23.1102 C432.5429,23.7252 434.2509,23.4422 435.4379,22.2562 C436.6249,21.0702 436.8699,19.3232 436.2539,17.8672 L436.2539,17.8672 Z" id="Stroke-829" sketch:type="MSShapeGroup"></path>
                <path d="M439.999,9.8779 L436.254,6.1329 C436.87,4.6769 436.588,2.9309 435.4,1.7449 C434.214,0.5579 432.543,0.2749 431.086,0.8909 L433.074,2.8049 L433.074,5.0749 L430.805,5.0749 L428.891,3.0859 C428.274,4.5419 428.558,6.2509 429.744,7.4379 C430.931,8.6249 432.677,8.8889 434.133,8.2739 L437.879,12.0089" id="Stroke-830" sketch:type="MSShapeGroup"></path>
                <path d="M439.999,14.1201 L443.746,17.8681 C443.13,19.3241 443.412,21.0701 444.6,22.2571 C445.786,23.4441 447.532,23.7251 448.989,23.1101 L447.074,21.1961 L447.074,19.0751 L449.195,19.0751 L451.109,20.9881 C451.726,19.5321 451.442,17.7871 450.256,16.6001 C449.069,15.4131 447.323,15.1301 445.867,15.7471 L442.122,12.0001" id="Stroke-831" sketch:type="MSShapeGroup"></path>
                <path d="M293.5,6.5 C293.5,7.053 293.051,7.5 292.5,7.5 L290.5,7.5 C289.945,7.5 289.5,7.053 289.5,6.5 L289.5,1.5 C289.5,0.948 289.945,0.5 290.5,0.5 L292.5,0.5 C293.051,0.5 293.5,0.948 293.5,1.5 L293.5,6.5 L293.5,6.5 Z" id="Stroke-854" sketch:type="MSShapeGroup"></path>
                <path d="M296.5,14.5 L298.5,14.5 L298.5,6.5 L296.5,6.5 L296.5,14.5 Z" id="Stroke-855" sketch:type="MSShapeGroup"></path>
                <path d="M299.5,23.5 L295.5,23.5 L295.5,14.5 L299.5,14.5 L299.5,23.5 Z" id="Stroke-856" sketch:type="MSShapeGroup"></path>
                <path d="M304,6.5 C304,4.566 305.564,3 307.5,3 L307.5,1.5 L293.5,1.5 L293.5,6.5 L304,6.5 L304,6.5 Z" id="Stroke-857" sketch:type="MSShapeGroup"></path>
                <path d="M1022.5,23.5 L999.5,23.5 L999.5,0.5 L1022.5,0.5 L1022.5,23.5 Z" id="Stroke-1095" stroke-linecap="round" sketch:type="MSShapeGroup"></path>
                <path d="M1002.5,6.5 C1002.5,8.157 1003.844,9.5 1005.5,9.5 L1016.5,9.5 C1018.156,9.5 1019.5,8.157 1019.5,6.5 C1019.5,4.843 1018.156,3.5 1016.5,3.5 L1005.5,3.5 C1003.844,3.5 1002.5,4.843 1002.5,6.5 L1002.5,6.5 Z" id="Stroke-1096" stroke-linecap="round" sketch:type="MSShapeGroup"></path>
                <path d="M1002.5,17.5 C1002.5,19.157 1003.844,20.5 1005.5,20.5 L1016.5,20.5 C1018.156,20.5 1019.5,19.157 1019.5,17.5 C1019.5,15.843 1018.156,14.5 1016.5,14.5 L1005.5,14.5 C1003.844,14.5 1002.5,15.843 1002.5,17.5 L1002.5,17.5 Z" id="Stroke-1097" stroke-linecap="round" sketch:type="MSShapeGroup"></path>
                <path d="M1008.5,6.5 C1008.5,8.157 1007.156,9.5 1005.5,9.5 C1003.844,9.5 1002.5,8.157 1002.5,6.5 C1002.5,4.843 1003.844,3.5 1005.5,3.5 C1007.156,3.5 1008.5,4.843 1008.5,6.5 L1008.5,6.5 Z" id="Stroke-1098" stroke-linecap="round" sketch:type="MSShapeGroup"></path>
                <path d="M1019.5,17.5 C1019.5,19.157 1018.156,20.5 1016.5,20.5 C1014.844,20.5 1013.5,19.157 1013.5,17.5 C1013.5,15.843 1014.844,14.5 1016.5,14.5 C1018.156,14.5 1019.5,15.843 1019.5,17.5 L1019.5,17.5 Z" id="Stroke-1099" stroke-linecap="round" sketch:type="MSShapeGroup"></path>
                <path d="M883.5,17.9394977 C883.5,18.8164977 882.829,19.5274977 882,19.5274977 L862,19.5274977 C861.172,19.5274977 860.5,18.8164977 860.5,17.9394977 L860.5,3.11549766 C860.5,2.23849766 861.172,1.52749766 862,1.52749766 L882,1.52749766 C882.829,1.52749766 883.5,2.23849766 883.5,3.11549766 L883.5,17.9394977 L883.5,17.9394977 Z" id="Stroke-21" stroke-linecap="round" sketch:type="MSShapeGroup"></path>
                <path d="M865,21.5273977 L879,21.5273977" id="Stroke-22" stroke-linecap="round" sketch:type="MSShapeGroup"></path>
                <path d="M872,19.5273977 L872,21.5273977" id="Stroke-23" stroke-linecap="round" sketch:type="MSShapeGroup"></path>
                <path d="M872.5,17.5273977 C872.5,17.8033977 872.276,18.0273977 872,18.0273977 C871.724,18.0273977 871.5,17.8033977 871.5,17.5273977 C871.5,17.2513977 871.724,17.0273977 872,17.0273977 C872.276,17.0273977 872.5,17.2513977 872.5,17.5273977 L872.5,17.5273977 Z" id="Stroke-24" sketch:type="MSShapeGroup"></path>
                <path d="M860.5,15.5273977 L883.5,15.5273977" id="Stroke-25" sketch:type="MSShapeGroup"></path>
                <path d="M21.2275,4.5493 L16.9855,8.7923 L14.1575,5.9653 L18.3995,1.7213 L21.2275,4.5493 L21.2275,4.5493 Z" id="Stroke-4167" sketch:type="MSShapeGroup"></path>
                <path d="M7.793,17.9849 L3.55,22.2279 L0.722,19.3989 L4.965,15.1569 L7.793,17.9849 L7.793,17.9849 Z" id="Stroke-4168" sketch:type="MSShapeGroup"></path>
                <path d="M8.5,9.5 C6.742,11.257 6.742,14.106 8.5,15.864 L14.864,9.5 C13.106,7.743 10.258,7.743 8.5,9.5 L8.5,9.5 Z" id="Stroke-4169" sketch:type="MSShapeGroup"></path>
                <path d="M13.1123,11.252 C13.8933,12.033 13.9383,13.377 13.1583,14.158 C12.3763,14.939 11.0573,14.868 10.2763,14.087" id="Stroke-4170" stroke-linecap="round" sketch:type="MSShapeGroup"></path>
                <path d="M16.6895,12.0073 C16.9135,13.5203 16.4425,15.1153 15.2795,16.2783 C14.1215,17.4353 12.5375,17.9073 11.0325,17.6933" id="Stroke-4171" stroke-linecap="round" sketch:type="MSShapeGroup"></path>
                <path d="M19.6943,11.8569 C19.9533,14.1889 19.1883,16.6119 17.4003,18.3999 C15.6103,20.1889 13.1853,20.9539 10.8513,20.6939" id="Stroke-4172" stroke-linecap="round" sketch:type="MSShapeGroup"></path>
                <path d="M22.5762,10.8252 C23.1782,14.2402 22.1592,17.8832 19.5212,20.5202 C16.9082,23.1352 13.3072,24.1582 9.9212,23.5932" id="Stroke-4173" stroke-linecap="round" sketch:type="MSShapeGroup"></path>
                <path d="M1292.5,23.5 L1286.5,23.5 L1286.5,5.5 L1292.5,5.5 L1292.5,23.5 Z" id="Stroke-7387" sketch:type="MSShapeGroup"></path>
                <path d="M1300.5,23.5 L1294.5,23.5 L1294.5,5.5 L1300.5,5.5 L1300.5,23.5 Z" id="Stroke-7388" sketch:type="MSShapeGroup"></path>
                <path d="M1308.5,23.5 L1302.5,23.5 L1302.5,5.5 L1308.5,5.5 L1308.5,23.5 Z" id="Stroke-7389" sketch:type="MSShapeGroup"></path>
                <path d="M1290.5,0.5 L1288.5,0.5 L1287.5,5.5 L1291.5,5.5 L1290.5,0.5 L1290.5,0.5 Z" id="Stroke-7390" sketch:type="MSShapeGroup"></path>
                <path d="M1286.5,8.5 L1292.5,8.5" id="Stroke-7391" sketch:type="MSShapeGroup"></path>
                <path d="M1286.5,20.5 L1292.5,20.5" id="Stroke-7392" sketch:type="MSShapeGroup"></path>
                <path d="M1298.5,0.5 L1296.5,0.5 L1295.5,5.5 L1299.5,5.5 L1298.5,0.5 L1298.5,0.5 Z" id="Stroke-7393" sketch:type="MSShapeGroup"></path>
                <path d="M1294.5,8.5 L1300.5,8.5" id="Stroke-7394" sketch:type="MSShapeGroup"></path>
                <path d="M1294.5,20.5 L1300.5,20.5" id="Stroke-7395" sketch:type="MSShapeGroup"></path>
                <path d="M1306.5,0.5 L1304.5,0.5 L1303.5,5.5 L1307.5,5.5 L1306.5,0.5 L1306.5,0.5 Z" id="Stroke-7396" sketch:type="MSShapeGroup"></path>
                <path d="M1302.5,8.5 L1308.5,8.5" id="Stroke-7397" sketch:type="MSShapeGroup"></path>
                <path d="M1302.5,20.5 L1308.5,20.5" id="Stroke-7398" sketch:type="MSShapeGroup"></path>
                <path d="M1010,147.50025 L1002,147.50025 L1002,134.50025 L1010,134.50025 L1010,147.50025 Z" id="Stroke-8" stroke-linecap="round" sketch:type="MSShapeGroup"></path>
                <path d="M1007,130.50025 L1005,130.50025 L1005,128.50025 L1007,128.50025 L1007,130.50025 Z" id="Stroke-10" stroke-linecap="round" sketch:type="MSShapeGroup"></path>
                <path d="M1008.4998,134.49995 L1002.9998,134.49995 L1003.9998,132.49995 L1007.4998,132.49995 L1008.4998,134.49995 L1008.4998,134.49995 Z" id="Stroke-11" stroke-linecap="round" sketch:type="MSShapeGroup"></path>
                <path d="M1005.9998,130.49995 L1005.9998,132.49995" id="Stroke-12" stroke-linecap="round" sketch:type="MSShapeGroup"></path>
                <path d="M1010.9998,129.49995 L1013.9998,129.49995" id="Stroke-13" stroke-linecap="round" sketch:type="MSShapeGroup"></path>
                <path d="M1010.4998,131.49995 L1013.4998,132.49995" id="Stroke-14" stroke-linecap="round" sketch:type="MSShapeGroup"></path>
                <path d="M1010.4998,127.49995 L1013.4998,126.49995" id="Stroke-15" stroke-linecap="round" sketch:type="MSShapeGroup"></path>
                <path d="M1015.9998,134.49995 C1017.4408,134.49995 1018.6268,133.34595 1017.9998,131.99995 C1019.2398,131.80295 1019.9998,130.79595 1019.9998,129.49995 C1019.9998,128.23995 1019.1898,127.23895 1017.9998,126.99995 C1018.3848,125.66395 1017.2808,124.49995 1015.9998,124.49995" id="Stroke-16" stroke-linecap="round" sketch:type="MSShapeGroup"></path>
                <path d="M21.5,267.5 C21.5,269.709 19.709,271.5 17.5,271.5 L5.5,271.5 C3.291,271.5 1.5,269.709 1.5,267.5 L1.5,262.5 C1.5,260.291 3.291,258.5 5.5,258.5 L17.5,258.5 C19.709,258.5 21.5,260.291 21.5,262.5 L21.5,267.5 L21.5,267.5 Z" id="Stroke-779" sketch:type="MSShapeGroup"></path>
                <path d="M19.5312,265.5 C19.5312,267.157 18.1872,268.5 16.5312,268.5 C14.8752,268.5 13.5312,267.157 13.5312,265.5 C13.5312,263.843 14.8752,262.5 16.5312,262.5 C18.1872,262.5 19.5312,263.843 19.5312,265.5 L19.5312,265.5 Z" id="Stroke-780" sketch:type="MSShapeGroup"></path>
                <path d="M9.5312,265.5 C9.5312,267.157 8.1872,268.5 6.5312,268.5 C4.8752,268.5 3.5312,267.157 3.5312,265.5 C3.5312,263.843 4.8752,262.5 6.5312,262.5 C8.1872,262.5 9.5312,263.843 9.5312,265.5 L9.5312,265.5 Z" id="Stroke-781" sketch:type="MSShapeGroup"></path>
                <path d="M12.5,262.5 L10.5,262.5 L8.5,260.5 L14.5,260.5 L12.5,262.5 L12.5,262.5 Z" id="Stroke-782" sketch:type="MSShapeGroup"></path>
                <path d="M10,269.5 L13,269.5" id="Stroke-783" sketch:type="MSShapeGroup"></path>
                <path d="M16.5312,265.5 L18.7192,261.031" id="Stroke-784" stroke-linecap="round" sketch:type="MSShapeGroup"></path>
                <path d="M6.5,265.5 L6.5,260.5" id="Stroke-785" stroke-linecap="round" sketch:type="MSShapeGroup"></path>
                <path d="M13.5,256.5 L9.5,256.5 L9.5,258.5 L13.5,258.5 L13.5,256.5 Z" id="Stroke-786" stroke-linecap="round" sketch:type="MSShapeGroup"></path>
                <path d="M11.5,256.5 L11.5,251.5" id="Stroke-787" stroke-linecap="round" sketch:type="MSShapeGroup"></path>
                <path d="M20.0859,248.5039 C20.3639,249.4939 20.5129,250.5379 20.5129,251.6179 C20.5129,252.6349 20.3809,253.6199 20.1329,254.5589" id="Stroke-788" stroke-linecap="round" sketch:type="MSShapeGroup"></path>
                <path d="M17.0557,249.0342 C17.3517,249.8392 17.5127,250.7102 17.5127,251.6182 C17.5127,252.4552 17.3747,253.2612 17.1217,254.0132" id="Stroke-789" stroke-linecap="round" sketch:type="MSShapeGroup"></path>
                <path d="M13.9492,249.7139 C14.3062,250.2619 14.5122,250.9149 14.5122,251.6179 C14.5122,252.2859 14.3262,252.9109 14.0002,253.4419" id="Stroke-790" stroke-linecap="round" sketch:type="MSShapeGroup"></path>
                <path d="M2.9141,248.5039 C2.6351,249.4939 2.4871,250.5379 2.4871,251.6179 C2.4871,252.6349 2.6191,253.6199 2.8661,254.5589" id="Stroke-791" stroke-linecap="round" sketch:type="MSShapeGroup"></path>
                <path d="M5.9434,249.0342 C5.6484,249.8392 5.4874,250.7102 5.4874,251.6182 C5.4874,252.4552 5.6254,253.2612 5.8774,254.0132" id="Stroke-792" stroke-linecap="round" sketch:type="MSShapeGroup"></path>
                <path d="M9.0488,249.7139 C8.6938,250.2619 8.4878,250.9149 8.4878,251.6179 C8.4878,252.2859 8.6738,252.9109 8.9998,253.4419" id="Stroke-793" stroke-linecap="round" sketch:type="MSShapeGroup"></path>
                <path d="M883.5,143.5 C883.5,144.604 882.605,145.5 881.5,145.5 L862.5,145.5 C861.395,145.5 860.5,144.604 860.5,143.5 L860.5,129.5 C860.5,128.396 861.395,127.5 862.5,127.5 L881.5,127.5 C882.605,127.5 883.5,128.396 883.5,129.5 L883.5,143.5 L883.5,143.5 Z" id="Stroke-73" stroke-linecap="round" sketch:type="MSShapeGroup"></path>
                <path d="M860.5,132.5 L883.5,132.5" id="Stroke-75" stroke-linecap="round" sketch:type="MSShapeGroup"></path>
                <path d="M864.5,130 C864.5,130.276 864.276,130.5 864,130.5 C863.724,130.5 863.5,130.276 863.5,130 C863.5,129.724 863.724,129.5 864,129.5 C864.276,129.5 864.5,129.724 864.5,130 L864.5,130 Z" id="Stroke-77" stroke-linecap="round" sketch:type="MSShapeGroup"></path>
                <path d="M867.5,130 C867.5,130.276 867.276,130.5 867,130.5 C866.724,130.5 866.5,130.276 866.5,130 C866.5,129.724 866.724,129.5 867,129.5 C867.276,129.5 867.5,129.724 867.5,130 L867.5,130 Z" id="Stroke-79" stroke-linecap="round" sketch:type="MSShapeGroup"></path>
                <path d="M870.5,130 C870.5,130.276 870.276,130.5 870,130.5 C869.724,130.5 869.5,130.276 869.5,130 C869.5,129.724 869.724,129.5 870,129.5 C870.276,129.5 870.5,129.724 870.5,130 L870.5,130 Z" id="Stroke-81" stroke-linecap="round" sketch:type="MSShapeGroup"></path>
                <path d="M867.5,138.5 L864.5,138.5 L864.5,135.5 L867.5,135.5 L867.5,138.5 Z" id="Stroke-83" stroke-linecap="round" sketch:type="MSShapeGroup"></path>
                <path d="M867.5,143.5 L864.5,143.5 L864.5,140.5 L867.5,140.5 L867.5,143.5 Z" id="Stroke-85" stroke-linecap="round" sketch:type="MSShapeGroup"></path>
                <path d="M873.5,138.5 L870.5,138.5 L870.5,135.5 L873.5,135.5 L873.5,138.5 Z" id="Stroke-86" stroke-linecap="round" sketch:type="MSShapeGroup"></path>
                <path d="M873.5,143.5 L870.5,143.5 L870.5,140.5 L873.5,140.5 L873.5,143.5 Z" id="Stroke-87" stroke-linecap="round" sketch:type="MSShapeGroup"></path>
                <path d="M879.5,138.5 L876.5,138.5 L876.5,135.5 L879.5,135.5 L879.5,138.5 Z" id="Stroke-88" stroke-linecap="round" sketch:type="MSShapeGroup"></path>
                <path d="M879.5,143.5 L876.5,143.5 L876.5,140.5 L879.5,140.5 L879.5,143.5 Z" id="Stroke-89" stroke-linecap="round" sketch:type="MSShapeGroup"></path>
                <path d="M1146.5,131.4956 L1142.52,135.4786 L1148.5,135.4786 L1146.5,131.4956 L1146.5,131.4956 Z" id="Stroke-7236" sketch:type="MSShapeGroup"></path>
                <path d="M1148.5,135.4785 L1152.5,142.9785 L1163.552,147.3335 L1152.5,131.4995 L1152.5,142.9785" id="Stroke-7237" sketch:type="MSShapeGroup"></path>
                <path d="M1152.5,131.5 L1146.453,131.496" id="Stroke-7238" sketch:type="MSShapeGroup"></path>
                <path d="M1152.5,131.5 L1159.5,124.646 L1159.5,141.528" id="Stroke-7239" sketch:type="MSShapeGroup"></path>
                <path d="M1159.5,129.9785 L1165.531,126.6355 L1159.719,141.8235" id="Stroke-7240" sketch:type="MSShapeGroup"></path>
                <path d="M429.5,265.5 L429.5,271.5 L450.5,271.5 L450.5,265.5 L451.5,265.5 L451.5,257.5 C451.5,256.396 450.604,255.5 449.5,255.5 L430.5,255.5 C429.396,255.5 428.5,256.396 428.5,257.5 L428.5,265.5 L429.5,265.5 L429.5,265.5 Z" id="Stroke-1431" stroke-linecap="round" sketch:type="MSShapeGroup"></path>
                <path d="M442.5,266.5 L437.5,266.5 L437.5,263.5 L442.5,263.5 L442.5,266.5 Z" id="Stroke-1432" stroke-linecap="round" sketch:type="MSShapeGroup"></path>
                <path d="M444.5,255.5 L435.5,255.5 L435.5,254.5 C435.5,252.844 436.844,251.5 438.5,251.5 L441.5,251.5 C443.157,251.5 444.5,252.844 444.5,254.5 L444.5,255.5 L444.5,255.5 Z" id="Stroke-1433" stroke-linecap="round" sketch:type="MSShapeGroup"></path>
                <path d="M429.5,265.5 L437.5,265.5" id="Stroke-1434" stroke-linecap="round" sketch:type="MSShapeGroup"></path>
                <path d="M442.5,265.5 L450.5,265.5" id="Stroke-1435" stroke-linecap="round" sketch:type="MSShapeGroup"></path>
                <path d="M306.5,394.5 L291.5,394.5 L291.5,388.5 L306.5,388.5 L306.5,394.5 Z" id="Stroke-6346" sketch:type="MSShapeGroup"></path>
                <path d="M292.5,394.5 L292.5,395.5" id="Stroke-6347" stroke-linecap="round" sketch:type="MSShapeGroup"></path>
                <path d="M305.5,394.5 L305.5,395.5" id="Stroke-6348" stroke-linecap="round" sketch:type="MSShapeGroup"></path>
                <path d="M304.5,390.5 L304.5,392.5" id="Stroke-6349" stroke-linecap="round" sketch:type="MSShapeGroup"></path>
                <path d="M302.5,390.5 L302.5,392.5" id="Stroke-6350" stroke-linecap="round" sketch:type="MSShapeGroup"></path>
                <path d="M300.5,390.5 L300.5,392.5" id="Stroke-6351" stroke-linecap="round" sketch:type="MSShapeGroup"></path>
                <path d="M306.5,385.5 L306.5,377.5 L302.5,377.5" id="Stroke-6352" sketch:type="MSShapeGroup"></path>
                <path d="M294.5,377.5 L302.5,377.5 L302.5,379.5 L294.5,379.5 L294.5,377.5 Z" id="Stroke-6353" sketch:type="MSShapeGroup"></path>
                <path d="M301.5,372.5 L295.5,372.5 L295.5,377.5 L301.5,377.5 L301.5,372.5 Z" id="Stroke-6354" sketch:type="MSShapeGroup"></path>
                <path d="M299.541,375.0835 C299.541,375.6355 299.094,376.0835 298.541,376.0835 C297.989,376.0835 297.541,375.6355 297.541,375.0835 C297.541,374.5315 297.989,374.0835 298.541,374.0835 C299.094,374.0835 299.541,374.5315 299.541,375.0835 L299.541,375.0835 Z" id="Stroke-6355" sketch:type="MSShapeGroup"></path>
                <path d="M307.5,388.5 L290.5,388.5 L290.5,385.5 L307.5,385.5 L307.5,388.5 Z" id="Stroke-6356" sketch:type="MSShapeGroup"></path>
                <path d="M591.5,257 C591.5,261.142 588.143,264.5 584,264.5 C579.857,264.5 576.5,261.142 576.5,257 C576.5,252.858 579.857,249.5 584,249.5 C588.143,249.5 591.5,252.858 591.5,257 L591.5,257 Z" id="Stroke-7206" sketch:type="MSShapeGroup"></path>
                <path d="M587.5,265 C587.5,269.142 584.143,272.5 580,272.5 C575.857,272.5 572.5,269.142 572.5,265 C572.5,260.858 575.857,257.5 580,257.5 C584.143,257.5 587.5,260.858 587.5,265 L587.5,265 Z" id="Stroke-7207" sketch:type="MSShapeGroup"></path>
                <path d="M595.5,265 C595.5,269.142 592.143,272.5 588,272.5 C583.857,272.5 580.5,269.142 580.5,265 C580.5,260.858 583.857,257.5 588,257.5 C592.143,257.5 595.5,260.858 595.5,265 L595.5,265 Z" id="Stroke-7208" sketch:type="MSShapeGroup"></path>
                <path d="M736.5,382 C736.5,383.933 734.934,385.5 733,385.5 C731.066,385.5 729.5,383.933 729.5,382 C729.5,380.067 731.066,378.5 733,378.5 C734.934,378.5 736.5,380.067 736.5,382 L736.5,382 Z" id="Stroke-6342" sketch:type="MSShapeGroup"></path>
                <path d="M734.3125,382 C734.3125,382.725 733.7245,383.312 733.0005,383.312 C732.2755,383.312 731.6875,382.725 731.6875,382 C731.6875,381.275 732.2755,380.688 733.0005,380.688 C733.7245,380.688 734.3125,381.275 734.3125,382 L734.3125,382 Z" id="Stroke-6343" sketch:type="MSShapeGroup"></path>
                <path d="M727.4492,383.3364 C727.4822,383.5524 727.5002,383.7734 727.5002,384.0004 C727.5002,386.4854 725.4852,388.5004 723.0002,388.5004 C720.6442,388.5004 718.5382,387.0174 718.5382,384.5004 L716.5002,384.5004 L716.5002,388.5004 C716.5002,390.7094 718.2912,392.5004 720.5002,392.5004 L737.0002,392.5004 C738.1042,392.5004 739.5002,391.6044 739.5002,390.5004 L739.5002,382.5004 C739.5002,374.5074 729.7522,373.5464 727.2172,378.6554" id="Stroke-6344" stroke-linecap="round" sketch:type="MSShapeGroup"></path>
                <path d="M718.4062,384.4687 L731.2812,378.9377" id="Stroke-6345" sketch:type="MSShapeGroup"></path>
                <path d="M868.4687,260.063 L863.9827,264.654" id="Stroke-2490" stroke-linecap="round" sketch:type="MSShapeGroup"></path>
                <path d="M875.5176,252.8472 L870.5356,257.9432" id="Stroke-2491" stroke-linecap="round" sketch:type="MSShapeGroup"></path>
                <path d="M864.5,266 C864.5,267.105 863.604,268 862.5,268 C861.395,268 860.5,267.105 860.5,266 C860.5,264.896 861.395,264 862.5,264 C863.604,264 864.5,264.896 864.5,266 L864.5,266 Z" id="Stroke-2492" stroke-linecap="round" sketch:type="MSShapeGroup"></path>
                <path d="M879,251.5 C879,252.605 878.103,253.5 877,253.5 C875.896,253.5 875,252.605 875,251.5 C875,250.396 875.896,249.5 877,249.5 C878.103,249.5 879,250.396 879,251.5 L879,251.5 Z" id="Stroke-2493" stroke-linecap="round" sketch:type="MSShapeGroup"></path>
                <path d="M871.0234,258.8818 C872.7674,257.3958 875.0294,256.4998 877.5004,256.4998 L881.5004,256.4998" id="Stroke-2494" stroke-linecap="round" sketch:type="MSShapeGroup"></path>
                <path d="M867.5,270.5 L867.5,266.5 C867.5,264.27 868.249,262.164 869.484,260.5" id="Stroke-2495" stroke-linecap="round" sketch:type="MSShapeGroup"></path>
                <path d="M871,259 C871,259.83 870.328,260.5 869.5,260.5 C868.672,260.5 868,259.83 868,259 C868,258.172 868.672,257.5 869.5,257.5 C870.328,257.5 871,258.172 871,259 L871,259 Z" id="Stroke-2496" stroke-linecap="round" sketch:type="MSShapeGroup"></path>
                <path d="M868.5,272.5 L866.5,272.5 L866.5,270.5 L868.5,270.5 L868.5,272.5 Z" id="Stroke-2497" sketch:type="MSShapeGroup"></path>
                <path d="M883.5,257.5 L881.5,257.5 L881.5,255.5 L883.5,255.5 L883.5,257.5 Z" id="Stroke-2498" sketch:type="MSShapeGroup"></path>
                <path d="M595.5,395.5 L572.5,395.5 L572.5,372.5 L595.5,372.5 L595.5,395.5 Z" id="Stroke-1902" sketch:type="MSShapeGroup"></path>
                <path d="M583.5,387.5 L583.5,391.484" id="Stroke-1903" stroke-linecap="round" sketch:type="MSShapeGroup"></path>
                <path d="M572.5,391.5 L595.5,391.5" id="Stroke-1904" sketch:type="MSShapeGroup"></path>
                <path d="M584.9531,381.5195 C584.9531,381.5195 586.0191,380.4375 587.3751,380.4445 C588.7291,380.4515 590.1211,380.6685 590.2811,381.5215 C590.1561,382.4425 588.7411,382.6615 587.5001,382.6105 C586.2591,382.5575 585.4581,382.0465 584.9531,381.5195 L584.9531,381.5195 Z" id="Stroke-1905" sketch:type="MSShapeGroup"></path>
                <path d="M581.9844,381.5195 C581.9844,381.5195 580.9184,380.4375 579.5624,380.4445 C578.2084,380.4515 576.8164,380.6685 576.6564,381.5215 C576.7814,382.4425 578.1964,382.6615 579.4374,382.6105 C580.6784,382.5575 581.4794,382.0465 581.9844,381.5195 L581.9844,381.5195 Z" id="Stroke-1906" sketch:type="MSShapeGroup"></path>
                <path d="M582.6113,379.9824 C582.6113,379.9824 583.0403,378.5244 582.3753,377.3434 C581.7103,376.1634 580.8443,375.0524 580.0213,375.3274 C579.2773,375.8844 579.7733,377.2264 580.4223,378.2864 C581.0703,379.3454 581.9063,379.7984 582.6113,379.9824 L582.6113,379.9824 Z" id="Stroke-1907" sketch:type="MSShapeGroup"></path>
                <path d="M584.2236,379.9824 C584.2236,379.9824 583.7956,378.5244 584.4606,377.3434 C585.1246,376.1634 585.9906,375.0524 586.8136,375.3274 C587.5586,375.8844 587.0616,377.2264 586.4136,378.2864 C585.7656,379.3454 584.9296,379.7984 584.2236,379.9824 L584.2236,379.9824 Z" id="Stroke-1908" sketch:type="MSShapeGroup"></path>
                <path d="M582.6045,382.9863 C582.6045,382.9863 583.0325,384.4443 582.3675,385.6253 C581.7035,386.8053 580.8375,387.9163 580.0145,387.6413 C579.2695,387.0863 579.7665,385.7423 580.4145,384.6823 C581.0625,383.6223 581.8985,383.1713 582.6045,382.9863 L582.6045,382.9863 Z" id="Stroke-1909" sketch:type="MSShapeGroup"></path>
                <path d="M584.2168,382.9863 C584.2168,382.9863 583.7888,384.4443 584.4528,385.6253 C585.1178,386.8053 585.9838,387.9163 586.8068,387.6413 C587.5508,387.0863 587.0548,385.7423 586.4058,384.6823 C585.7578,383.6223 584.9218,383.1713 584.2168,382.9863 L584.2168,382.9863 Z" id="Stroke-1910" sketch:type="MSShapeGroup"></path>
                <path d="M1309.5,270.5 L1301.042,270.5 L1298,265.5 L1295,270.5 L1286.5,270.5 L1286.5,259.5 L1309.5,259.5 L1309.5,270.5 L1309.5,270.5 Z" id="Stroke-264" sketch:type="MSShapeGroup"></path>
                <path d="M1286.5,259.5 L1292.102,250.273 C1292.528,249.562 1293.449,249.331 1294.16,249.758" id="Stroke-265" stroke-linecap="round" sketch:type="MSShapeGroup"></path>
                <path d="M1309.5,259.5 L1303.897,250.273 C1303.471,249.562 1302.551,249.331 1301.839,249.758" id="Stroke-266" stroke-linecap="round" sketch:type="MSShapeGroup"></path>
                <path d="M1288.5,261.5 L1288.5,268.5 L1292.984,268.5 L1295.842,263.5 L1294.999,261.5 L1288.5,261.5 L1288.5,261.5 Z" id="Stroke-267" stroke-linecap="round" sketch:type="MSShapeGroup"></path>
                <path d="M1307.5,261.5 L1307.5,268.5 L1303.015,268.5 L1300.158,263.5 L1301.001,261.5 L1307.5,261.5 L1307.5,261.5 Z" id="Stroke-268" stroke-linecap="round" sketch:type="MSShapeGroup"></path>
                <path d="M1165.5,262.5 C1165.79,255.951 1161.04,250.5 1154.502,250.5 C1147.968,250.5 1143.21,255.947 1143.5,262.5 C1143.5,262.5 1143.487,260.5 1145.987,260.5 C1148.487,260.5 1148.502,262.5 1148.502,262.5 C1148.502,262.5 1149.002,260.5 1151.502,260.5 C1154.002,260.5 1154.502,262.5 1154.502,262.5 C1154.502,262.5 1155.502,260.5 1157.502,260.5 C1159.502,260.5 1160.502,262.5 1160.502,262.5 C1160.502,262.5 1161.013,260.5 1163.013,260.5 C1165.013,260.5 1165.5,262.5 1165.5,262.5 L1165.5,262.5 Z" id="Stroke-691" sketch:type="MSShapeGroup"></path>
                <path d="M1154.5,250.5 L1154.5,248.5" id="Stroke-692" stroke-linecap="round" sketch:type="MSShapeGroup"></path>
                <path d="M1157,270 C1157,271.5 1154.5,271.5 1154.5,270 L1154.5,262.5" id="Stroke-693" stroke-linecap="round" sketch:type="MSShapeGroup"></path>
                <path d="M144.5,386.5 L149.5,386.5 L151.5,384 L153.5,389 L157.5,383 L160.5,390 L162.5,386.5 L167.5,386.5" id="Stroke-299" stroke-linecap="round" sketch:type="MSShapeGroup"></path>
                <path d="M158.5,377 C158.5,377.277 158.276,377.5 158,377.5 C157.723,377.5 157.5,377.277 157.5,377 C157.5,376.725 157.723,376.5 158,376.5 C158.276,376.5 158.5,376.725 158.5,377 L158.5,377 Z" id="Stroke-300" stroke-linecap="round" sketch:type="MSShapeGroup"></path>
                <path d="M161.5,377 C161.5,377.277 161.276,377.5 161,377.5 C160.723,377.5 160.5,377.277 160.5,377 C160.5,376.725 160.723,376.5 161,376.5 C161.276,376.5 161.5,376.725 161.5,377 L161.5,377 Z" id="Stroke-301" stroke-linecap="round" sketch:type="MSShapeGroup"></path>
                <path d="M164.5,377 C164.5,377.277 164.276,377.5 164,377.5 C163.723,377.5 163.5,377.277 163.5,377 C163.5,376.725 163.723,376.5 164,376.5 C164.276,376.5 164.5,376.725 164.5,377 L164.5,377 Z" id="Stroke-302" stroke-linecap="round" sketch:type="MSShapeGroup"></path>
                <path d="M167.5,393.5 L144.5,393.5 L144.5,374.5 L167.5,374.5 L167.5,393.5 Z" id="Stroke-303" stroke-linecap="round" sketch:type="MSShapeGroup"></path>
                <path d="M144.5,379.5 L167.5,379.5" id="Stroke-304" stroke-linecap="round" sketch:type="MSShapeGroup"></path>
                <path d="M726.9053,267.5 L718.5003,267.5 C717.3953,267.5 716.5003,266.604 716.5003,265.5 L716.5003,251.5 C716.5003,250.396 717.3953,249.5 718.5003,249.5 L737.5003,249.5 C738.6043,249.5 739.5003,250.396 739.5003,251.5 L739.5003,265.5" id="Stroke-677" stroke-linecap="round" sketch:type="MSShapeGroup"></path>
                <path d="M716.5,254.5 L739.5,254.5" id="Stroke-678" stroke-linecap="round" sketch:type="MSShapeGroup"></path>
                <path d="M720.5,252 C720.5,252.276 720.275,252.5 720,252.5 C719.723,252.5 719.5,252.276 719.5,252 C719.5,251.724 719.723,251.5 720,251.5 C720.275,251.5 720.5,251.724 720.5,252 L720.5,252 Z" id="Stroke-679" stroke-linecap="round" sketch:type="MSShapeGroup"></path>
                <path d="M723.5,252 C723.5,252.276 723.275,252.5 723,252.5 C722.723,252.5 722.5,252.276 722.5,252 C722.5,251.724 722.723,251.5 723,251.5 C723.275,251.5 723.5,251.724 723.5,252 L723.5,252 Z" id="Stroke-680" stroke-linecap="round" sketch:type="MSShapeGroup"></path>
                <path d="M726.5,252 C726.5,252.276 726.275,252.5 726,252.5 C725.724,252.5 725.5,252.276 725.5,252 C725.5,251.724 725.724,251.5 726,251.5 C726.275,251.5 726.5,251.724 726.5,252 L726.5,252 Z" id="Stroke-681" stroke-linecap="round" sketch:type="MSShapeGroup"></path>
                <path d="M737.1104,266.3057 C737.1104,268.4077 735.4064,270.1107 733.3054,270.1107 C731.2034,270.1107 729.5004,268.4077 729.5004,266.3057 C729.5004,264.2027 731.2034,262.4997 733.3054,262.4997 C735.4064,262.4997 737.1104,264.2027 737.1104,266.3057 L737.1104,266.3057 Z" id="Stroke-682" sketch:type="MSShapeGroup"></path>
                <path d="M736,269 L739.5,272.5" id="Stroke-683" stroke-linecap="round" sketch:type="MSShapeGroup"></path>
                <path d="M719.5156,257.5 L723.4686,257.5" id="Stroke-684" stroke-linecap="round" sketch:type="MSShapeGroup"></path>
                <path d="M719.5156,263.5 L721.4686,263.5" id="Stroke-685" stroke-linecap="round" sketch:type="MSShapeGroup"></path>
                <path d="M719.5156,260.5 L724.4686,260.5" id="Stroke-686" stroke-linecap="round" sketch:type="MSShapeGroup"></path>
                <path d="M723.5156,263.5 L727.4686,263.5" id="Stroke-687" stroke-linecap="round" sketch:type="MSShapeGroup"></path>
                <path d="M726.5156,260.5 L731.4686,260.5" id="Stroke-688" stroke-linecap="round" sketch:type="MSShapeGroup"></path>
                <path d="M725.5156,257.5 L730.4846,257.5" id="Stroke-689" stroke-linecap="round" sketch:type="MSShapeGroup"></path>
                <path d="M732.5312,257.5 L736.5002,257.5" id="Stroke-690" stroke-linecap="round" sketch:type="MSShapeGroup"></path>
                <path d="M733.5312,260.5 L736.5002,260.5" id="Stroke-691" stroke-linecap="round" sketch:type="MSShapeGroup"></path>
                <path d="M299.5,259.5 L287.5,254.5 L287.5,267.5 L299.5,272.5 L299.5,259.5 L299.5,259.5 Z" id="Stroke-1158" stroke-linecap="round" sketch:type="MSShapeGroup"></path>
                <path d="M299.5,259.5 L310.5,254.5 L310.5,267.5 L299.5,272.5 L299.5,259.5 L299.5,259.5 Z" id="Stroke-1159" stroke-linecap="round" sketch:type="MSShapeGroup"></path>
                <path d="M287.5,254.5 L299,249.5 L310.5,254.5" id="Stroke-1160" stroke-linecap="round" sketch:type="MSShapeGroup"></path>
                <path d="M294.1875,251.5947 L305.2885,256.8727" id="Stroke-1161" sketch:type="MSShapeGroup"></path>
                <path d="M296.5,262 L290.5,259 L290.5,264 L296.5,267 L296.5,262 L296.5,262 Z" id="Stroke-1162" stroke-linecap="round" sketch:type="MSShapeGroup"></path>
                <path d="M155.5508,261.5186 L150.7828,256.7636 L157.0618,250.4996 L166.4618,250.4996 L155.5508,261.5186 L155.5508,261.5186 Z" id="Stroke-2839" sketch:type="MSShapeGroup"></path>
                <path d="M155.4619,261.5127 L160.2269,256.7447 L166.4999,263.0237 L166.4999,272.4237 L155.4619,261.5127 L155.4619,261.5127 Z" id="Stroke-2840" sketch:type="MSShapeGroup"></path>
                <path d="M155.4492,261.4434 L160.2172,266.2164 L153.9382,272.5004 L144.5382,272.5004 L155.4492,261.4434 L155.4492,261.4434 Z" id="Stroke-2841" sketch:type="MSShapeGroup"></path>
                <path d="M155.5381,261.4111 L150.7731,266.1791 L144.5001,259.9001 L144.5001,250.5001 L155.5381,261.4111 L155.5381,261.4111 Z" id="Stroke-2842" sketch:type="MSShapeGroup"></path>
                <path d="M155.5,261.5 L155.5,252" id="Stroke-2843" sketch:type="MSShapeGroup"></path>
                <path d="M165.0205,261.5 L155.5205,261.5" id="Stroke-2844" sketch:type="MSShapeGroup"></path>
                <path d="M155.5,271 L155.5,261.479" id="Stroke-2845" sketch:type="MSShapeGroup"></path>
                <path d="M146.0781,261.5 L155.5001,261.5" id="Stroke-2846" sketch:type="MSShapeGroup"></path>
                <path d="M441.3881,394.3 L451.5881,394.3 L442.5881,386.8 L442.5881,379.8 C442.5881,378.418 441.4691,377.3 440.0881,377.3 C438.7071,377.3 437.5881,378.418 437.5881,379.8 L437.5881,386.8 L428.5881,394.3 L438.7881,394.3" id="Stroke-1" stroke-linecap="round" sketch:type="MSShapeGroup"></path>
                <path d="M439.5883,390.3 L440.5883,390.3 L441.5883,395.3 L438.5883,395.3 L439.5883,390.3 L439.5883,390.3 Z" id="Stroke-3" stroke-linecap="round" sketch:type="MSShapeGroup"></path>
                <path d="M434.5883,389.2219 L434.5883,377.7999 C434.5883,374.7619 437.0513,372.2999 440.0883,372.2999 C443.1253,372.2999 445.5883,374.7619 445.5883,377.7999 L445.5883,389.2059" id="Stroke-5" stroke-linecap="round" sketch:type="MSShapeGroup"></path>
                <path d="M449.5883,392.5705 L449.5883,380.3005 C449.5883,379.1955 448.6933,378.3005 447.5883,378.3005 C446.4843,378.3005 445.5883,379.1955 445.5883,380.3005 L445.5883,389.3005" id="Stroke-7" stroke-linecap="round" sketch:type="MSShapeGroup"></path>
                <path d="M430.5883,392.5705 L430.5883,380.3005 C430.5883,379.1955 431.4843,378.3005 432.5883,378.3005 C433.6933,378.3005 434.5883,379.1955 434.5883,380.3005 L434.5883,389.3005" id="Stroke-9" stroke-linecap="round" sketch:type="MSShapeGroup"></path>
                <path d="M439.5883,379.3 L440.5883,379.3 L441.0883,382.3 L439.0883,382.3 L439.5883,379.3 L439.5883,379.3 Z" id="Stroke-11" sketch:type="MSShapeGroup"></path>
                <path d="M871,376.6479 L871,374.4999 L869,374.4999 L869,376.6479 C867.553,377.0779 866.5,378.4159 866.5,379.9999 L866.5,395.5009 L873.5,395.5009 L873.5,379.9999 C873.5,378.4159 872.444,377.0779 871,376.6479 L871,376.6479 Z" id="Stroke-358" stroke-linecap="round" sketch:type="MSShapeGroup"></path>
                <path d="M864.5,372.5 L869,374.5 L868.977,374.5 C865.952,374.5 863.5,376.954 863.5,379.979 L863.5,392.5" id="Stroke-360" stroke-linecap="round" sketch:type="MSShapeGroup"></path>
                <path d="M880.5,372.5 L880.5,376.5 L873,375.5 L873,373.5 L880.5,372.5 L880.5,372.5 Z" id="Stroke-362" stroke-linecap="round" sketch:type="MSShapeGroup"></path>
                <path d="M871,374.5 L873,374.5" id="Stroke-364" stroke-linecap="round" sketch:type="MSShapeGroup"></path>
                <path d="M873.5,392.5 L870.5,392.5 L870.5,381.5 L873.5,381.5" id="Stroke-366" stroke-linecap="round" sketch:type="MSShapeGroup"></path>
                <path d="M1013.6563,248.9976 C1015.2223,250.1496 1015.1353,252.3846 1014.5203,253.3156 C1014.0973,252.9696 1013.7213,252.5916 1013.6563,252.0206 C1012.2163,252.5916 1011.4983,253.7196 1011.4983,255.0436 C1011.4983,256.9516 1013.0443,258.4976 1014.9523,258.4976 C1016.8603,258.4976 1018.4063,256.9516 1018.4063,255.0436 C1018.4063,252.2566 1016.3993,249.6286 1013.6563,248.9976 L1013.6563,248.9976 Z" id="Stroke-3022" sketch:type="MSShapeGroup"></path>
                <path d="M1020.5,269.5 C1020.5,270.604 1019.604,271.5 1018.5,271.5 L1009.5,271.5 C1008.396,271.5 1007.5,270.604 1007.5,269.5 L1007.5,261.5 L1020.5,261.5 L1020.5,269.5 L1020.5,269.5 Z" id="Stroke-3023" sketch:type="MSShapeGroup"></path>
                <path d="M1001.5,252.5 C1001.5,250.291 1003.291,248.5 1005.5,248.5 L1007.5,248.5 L1007.5,261.5 L1005.5,261.5 C1003.291,261.5 1001.5,259.709 1001.5,257.5 L1001.5,252.5 L1001.5,252.5 Z" id="Stroke-3024" stroke-linecap="round" sketch:type="MSShapeGroup"></path>
                <path d="M1018.5,258.5 L1011.5,258.5 L1011.5,261.5 L1018.5,261.5 L1018.5,258.5 Z" id="Stroke-3025" stroke-linecap="round" sketch:type="MSShapeGroup"></path>
                <path d="M1014.5,386.5 L1001.5,386.5 L1001.5,382.5 L1014.5,382.5 L1014.5,386.5 Z" id="Stroke-3943" stroke-linecap="round" sketch:type="MSShapeGroup"></path>
                <path d="M1014.5,384.5 L1018.5,384.5" id="Stroke-3944" stroke-linecap="round" sketch:type="MSShapeGroup"></path>
                <path d="M1022.5,384.5 C1022.5,385.604 1021.604,386.5 1020.5,386.5 L1018.5,386.5 L1018.5,382.5 L1020.5,382.5 C1021.604,382.5 1022.5,383.396 1022.5,384.5 L1022.5,384.5 Z" id="Stroke-3945" stroke-linecap="round" sketch:type="MSShapeGroup"></path>
                <path d="M1011.5,382.5 L1003.5,382.5 C1001.291,382.5 999.5,380.709 999.5,378.5 C999.5,376.291 1001.291,374.5 1003.5,374.5 L1011.5,374.5 L1011.5,382.5 L1011.5,382.5 Z" id="Stroke-3946" stroke-linecap="round" sketch:type="MSShapeGroup"></path>
                <path d="M1011.5,382.5 L1012.867,382.5 C1014.532,382.5 1016.107,381.746 1017.151,380.449 L1017.5,380.017 L1017.5,377 L1017.151,376.564 C1016.107,375.26 1014.527,374.5 1012.856,374.5 L1011.5,374.5 L1011.5,382.5 L1011.5,382.5 Z" id="Stroke-3947" stroke-linecap="round" sketch:type="MSShapeGroup"></path>
                <path d="M1011.5,386.5 L1005.5,386.5 L1002.5,393.5 L1008.5,393.5 L1011.5,386.5 L1011.5,386.5 Z" id="Stroke-3948" stroke-linecap="round" sketch:type="MSShapeGroup"></path>
                <path d="M1012,386.5 C1012,386.5 1011.797,390 1015,390" id="Stroke-3949" stroke-linecap="round" sketch:type="MSShapeGroup"></path>
                <path d="M1019,378.5 L1021,378.5" id="Stroke-3950" stroke-linecap="round" sketch:type="MSShapeGroup"></path>
                <path d="M1154.5,373.5 C1148.424,373.5 1143.5,378 1143.5,384.5 L1165.5,384.5 C1165.5,378 1160.574,373.5 1154.5,373.5 L1154.5,373.5 Z" id="Stroke-328" stroke-linecap="round" sketch:type="MSShapeGroup"></path>
                <path d="M1154.5,372.5 L1154.5,373.5" id="Stroke-330" stroke-linecap="round" sketch:type="MSShapeGroup"></path>
                <path d="M1154.5186,384.5 L1154.5186,395.5" id="Stroke-332" stroke-linecap="round" sketch:type="MSShapeGroup"></path>
                <path d="M1151.542,395.5 L1157.479,395.5" id="Stroke-334" stroke-linecap="round" sketch:type="MSShapeGroup"></path>
                <path d="M1156.5186,384.5215 L1156.5186,387.4795" id="Stroke-336" stroke-linecap="round" sketch:type="MSShapeGroup"></path>
                <path d="M1298.5,391 C1298.5,391 1304.459,398.54 1308,395 C1311.535,391.464 1304,385.5 1304,385.5 L1298.5,391 L1298.5,391 Z" id="Stroke-480" stroke-linecap="round" sketch:type="MSShapeGroup"></path>
                <path d="M1305,392 L1290.5,377.5" id="Stroke-481" stroke-linecap="round" sketch:type="MSShapeGroup"></path>
                <path d="M1290.5,373.5 L1290.5,377.5 L1286.5,377.5 L1290.5,373.5 L1290.5,373.5 Z" id="Stroke-482" stroke-linecap="round" sketch:type="MSShapeGroup"></path>
                <path d="M18.5186,381 C18.5186,385.418 14.9356,389 10.5186,389 C6.1006,389 2.5186,385.418 2.5186,381 C2.5186,376.582 6.1006,373 10.5186,373 C14.9356,373 18.5186,376.582 18.5186,381 L18.5186,381 Z" id="Stroke-230" stroke-linecap="round" sketch:type="MSShapeGroup"></path>
                <path d="M10.0186,392 L10.0186,393.5" id="Stroke-232" stroke-linecap="round" sketch:type="MSShapeGroup"></path>
                <path d="M11.0186,392 L11.0186,393.5" id="Stroke-234" stroke-linecap="round" sketch:type="MSShapeGroup"></path>
                <path d="M16.5,395.5 C14.83,394.249 12.765,393.5 10.519,393.5 C8.273,393.5 6.206,394.249 4.536,395.5 L16.5,395.5 L16.5,395.5 Z" id="Stroke-236" stroke-linecap="round" sketch:type="MSShapeGroup"></path>
                <path d="M18.2964,373.2217 C22.5914,377.5177 22.5924,384.4827 18.2964,388.7787 C14.0014,393.0737 7.0364,393.0737 2.7404,388.7777" id="Stroke-238" stroke-linecap="round" sketch:type="MSShapeGroup"></path>
                <path d="M17.5894,373.9287 L19.0034,372.5147" id="Stroke-240" stroke-linecap="round" sketch:type="MSShapeGroup"></path>
                <path d="M2.0332,389.4849 L3.4472,388.0709" id="Stroke-242" stroke-linecap="round" sketch:type="MSShapeGroup"></path>
            </g>
        </g>
    </g>
</svg>