<?xml version="1.0" encoding="UTF-8" standalone="no"?>
<svg width="1420px" height="447px" viewBox="0 0 1420 447" version="1.1" xmlns="http://www.w3.org/2000/svg" xmlns:xlink="http://www.w3.org/1999/xlink" xmlns:sketch="http://www.bohemiancoding.com/sketch/ns">
    <!-- Generator: Sketch 3.4.4 (17249) - http://www.bohemiancoding.com/sketch -->
    <title>academy</title>
    <desc>Created with Sketch.</desc>
    <defs></defs>
    <g id="Page-1" stroke="none" stroke-width="1" fill="none" fill-rule="evenodd" sketch:type="MSPage">
        <g id="academy" sketch:type="MSArtboardGroup" stroke="#FFFFFF">
            <path d="M211.9652,143.0002 L211.9652,143.9792 C211.9652,144.8082 212.6352,145.5002 213.4652,145.5002 L221.4652,145.5002 C222.2932,145.5002 222.9652,144.8082 222.9652,143.9792 L222.9652,138.0002 C222.9652,137.1712 222.2932,136.5002 221.4652,136.5002 L213.4652,136.5002 C212.6352,136.5002 211.9652,137.1712 211.9652,138.0002 L211.9652,143.0002 L211.9652,143.0002 L211.9652,143.0002 Z" id="Stroke-24" sketch:type="MSShapeGroup"></path>
            <path d="M211.9652,142.5002 L222.9652,142.5002" id="Stroke-25" sketch:type="MSShapeGroup"></path>
            <path d="M215.4652,147.5002 L219.4652,147.5002" id="Stroke-26" sketch:type="MSShapeGroup"></path>
            <path d="M217.4652,145.5002 L217.4652,147.5002" id="Stroke-27" sketch:type="MSShapeGroup"></path>
            <path d="M203.8109,131.8322 C206.1359,133.5732 209.4039,133.1022 211.1439,130.7772 L202.7559,124.5002 C201.0159,126.8252 201.4869,130.0932 203.8109,131.8322 L203.8109,131.8322 L203.8109,131.8322 Z" id="Stroke-28" sketch:type="MSShapeGroup"></path>
            <path d="M208.389,125.7151 L206.95,127.6391" id="Stroke-29" sketch:type="MSShapeGroup"></path>
            <path d="M203.3158,131.4119 L199.9698,135.4999 L206.6618,135.4999 L203.3158,131.4119 L203.3158,131.4119 L203.3158,131.4119 Z" id="Stroke-30" sketch:type="MSShapeGroup"></path>
            <path d="M211.4652,127.5002 L217.9702,127.5002 L217.9702,133.9562" id="Stroke-31" sketch:type="MSShapeGroup"></path>
            <path d="M209.4652,144.5002 L202.9702,144.5002 L202.9702,137.9562" id="Stroke-32" sketch:type="MSShapeGroup"></path>
            <path d="M791.2539,137.5 L794.4999,137.5 L794.4999,134.5 L791.2529,134.5 C791.0439,133.633 790.7019,132.319 790.2499,131.578 L792.5459,129.283 L789.7169,126.454 L787.4199,128.75 C786.6799,128.298 785.3669,127.957 784.4999,127.748 L784.4999,124.5 L781.4999,124.5 L781.4999,127.748 C780.6329,127.957 779.3189,128.298 778.5789,128.75 L776.2819,126.454 L773.4529,129.283 L775.7499,131.579 C775.2979,132.319 774.9559,133.633 774.7459,134.5 L771.4999,134.5 L771.4999,137.5 L774.7459,137.5 C774.9559,138.367 775.2979,139.681 775.7499,140.421 L773.4529,142.718 L776.2819,145.546 L778.5779,143.249 C779.3189,143.702 780.6329,144.044 781.4999,144.254 L781.4999,147.5 L784.4999,147.5 L784.4999,144.254 C785.3669,144.044 786.6809,143.702 787.4199,143.25 L789.7179,145.546 L792.5459,142.718 L790.2499,140.421 C790.7019,139.681 791.0439,138.367 791.2539,137.5 L791.2539,137.5 L791.2539,137.5 Z" id="Stroke-814" sketch:type="MSShapeGroup"></path>
            <path d="M787.5,136 C787.5,138.486 785.485,140.5 783,140.5 C780.515,140.5 778.5,138.486 778.5,136 C778.5,133.515 780.515,131.5 783,131.5 C785.485,131.5 787.5,133.515 787.5,136 L787.5,136 L787.5,136 Z" id="Stroke-815" sketch:type="MSShapeGroup"></path>
            <path d="M360.5,130.9756 C360.5,134.5796 357.582,137.4996 353.982,137.4996 C350.383,137.4996 347.5,134.4616 347.5,130.8586 C347.5,127.3496 350.253,124.6456 353.721,124.5056 C353.814,124.5016 353.908,124.4996 354.003,124.4996 C357.602,124.4996 360.5,127.3716 360.5,130.9756 L360.5,130.9756 L360.5,130.9756 Z" id="Stroke-1778" sketch:type="MSShapeGroup"></path>
            <path d="M353.7207,124.5059 C350.3287,128.1799 350.3287,132.9729 353.7207,137.4949" id="Stroke-1779" sketch:type="MSShapeGroup"></path>
            <path d="M354.2852,124.5059 C357.6772,128.1799 357.6772,132.9719 354.2852,137.4929" id="Stroke-1780" sketch:type="MSShapeGroup"></path>
            <path d="M348.5742,134.5 L359.4682,134.5" id="Stroke-1781" sketch:type="MSShapeGroup"></path>
            <path d="M348.4531,127.5 L359.4961,127.5" id="Stroke-1782" sketch:type="MSShapeGroup"></path>
            <path d="M347.5,131 L360.5,131" id="Stroke-1783" sketch:type="MSShapeGroup"></path>
            <path d="M349,141.0146 C349,142.3956 347.881,143.5146 346.5,143.5146 C345.118,143.5146 344,142.3956 344,141.0146 C344,139.6336 345.118,138.5146 346.5,138.5146 C347.881,138.5146 349,139.6336 349,141.0146 L349,141.0146 L349,141.0146 Z" id="Stroke-1784" sketch:type="MSShapeGroup"></path>
            <path d="M356.5,141.0146 C356.5,142.3956 355.381,143.5146 354,143.5146 C352.618,143.5146 351.5,142.3956 351.5,141.0146 C351.5,139.6336 352.618,138.5146 354,138.5146 C355.381,138.5146 356.5,139.6336 356.5,141.0146 L356.5,141.0146 L356.5,141.0146 Z" id="Stroke-1785" sketch:type="MSShapeGroup"></path>
            <path d="M364,141.0146 C364,142.3956 362.881,143.5146 361.5,143.5146 C360.118,143.5146 359,142.3956 359,141.0146 C359,139.6336 360.118,138.5146 361.5,138.5146 C362.881,138.5146 364,139.6336 364,141.0146 L364,141.0146 L364,141.0146 Z" id="Stroke-1786" sketch:type="MSShapeGroup"></path>
            <path d="M361.5,143.5068 C359.767,143.5068 358.306,144.6188 357.75,146.1608 C357.194,144.6188 355.733,143.5128 354,143.5128 C352.267,143.5128 350.806,144.6218 350.25,146.1628 C349.694,144.6218 348.233,143.5068 346.5,143.5068 C344.29,143.5068 342.5,145.4998 342.5,147.4998 L365.5,147.4998 C365.5,145.4998 363.71,143.5068 361.5,143.5068 L361.5,143.5068 L361.5,143.5068 Z" id="Stroke-1787" sketch:type="MSShapeGroup"></path>
            <path d="M1346.5,132.4932 C1346.5,133.0442 1346.947,133.4932 1347.5,133.4932 L1348.5,133.4932 L1351.5,136.4932 L1351.5,133.4932 L1358.5,133.4932 C1359.052,133.4932 1359.5,133.0442 1359.5,132.4932 L1359.5,125.4932 C1359.5,124.9412 1359.052,124.4932 1358.5,124.4932 L1347.5,124.4932 C1346.947,124.4932 1346.5,124.9412 1346.5,125.4932 L1346.5,132.4932 L1346.5,132.4932 L1346.5,132.4932 Z" id="Stroke-1797" sketch:type="MSShapeGroup"></path>
            <path d="M1363,138.0073 C1363,139.3883 1361.881,140.5073 1360.5,140.5073 C1359.118,140.5073 1358,139.3883 1358,138.0073 C1358,136.6263 1359.118,135.5073 1360.5,135.5073 C1361.881,135.5073 1363,136.6263 1363,138.0073 L1363,138.0073 L1363,138.0073 Z" id="Stroke-1798" sketch:type="MSShapeGroup"></path>
            <path d="M1364.5,144.5073 L1356.5,144.5073 C1356.5,142.2993 1358.29,140.5073 1360.5,140.5073 C1362.71,140.5073 1364.5,142.2993 1364.5,144.5073 L1364.5,144.5073 L1364.5,144.5073 Z" id="Stroke-1799" sketch:type="MSShapeGroup"></path>
            <path d="M1348,138.0073 C1348,139.3883 1346.881,140.5073 1345.5,140.5073 C1344.118,140.5073 1343,139.3883 1343,138.0073 C1343,136.6263 1344.118,135.5073 1345.5,135.5073 C1346.881,135.5073 1348,136.6263 1348,138.0073 L1348,138.0073 L1348,138.0073 Z" id="Stroke-1800" sketch:type="MSShapeGroup"></path>
            <path d="M1349.5,144.5073 L1341.5,144.5073 C1341.5,142.2993 1343.29,140.5073 1345.5,140.5073 C1347.71,140.5073 1349.5,142.2993 1349.5,144.5073 L1349.5,144.5073 L1349.5,144.5073 Z" id="Stroke-1801" sketch:type="MSShapeGroup"></path>
            <path d="M1355.5,141.0073 C1355.5,142.3883 1354.381,143.5073 1353,143.5073 C1351.618,143.5073 1350.5,142.3883 1350.5,141.0073 C1350.5,139.6263 1351.618,138.5073 1353,138.5073 C1354.381,138.5073 1355.5,139.6263 1355.5,141.0073 L1355.5,141.0073 L1355.5,141.0073 Z" id="Stroke-1802" sketch:type="MSShapeGroup"></path>
            <path d="M1357,147.5073 L1349,147.5073 C1349,145.2993 1350.79,143.5073 1353,143.5073 C1355.21,143.5073 1357,145.2993 1357,147.5073 L1357,147.5073 L1357,147.5073 Z" id="Stroke-1803" sketch:type="MSShapeGroup"></path>
            <path d="M1349.5,126.4932 L1356.469,126.4932" id="Stroke-1804" sketch:type="MSShapeGroup"></path>
            <path d="M1349.5,128.4932 L1356.469,128.4932" id="Stroke-1805" sketch:type="MSShapeGroup"></path>
            <path d="M1349.5,130.4932 L1356.469,130.4932" id="Stroke-1806" sketch:type="MSShapeGroup"></path>
            <path d="M74.5,142.527398 C74.5,143.077398 74.05,143.527398 73.5,143.527398 L60.5,143.527398 C59.95,143.527398 59.5,143.077398 59.5,142.527398 L59.5,129.527398 C59.5,128.977398 59.95,128.527398 60.5,128.527398 L73.5,128.527398 C74.05,128.527398 74.5,128.977398 74.5,129.527398 L74.5,142.527398 L74.5,142.527398 L74.5,142.527398 Z" id="Stroke-948" sketch:type="MSShapeGroup"></path>
            <path d="M66.5,124.527398 L66.5,128.527398" id="Stroke-949" sketch:type="MSShapeGroup"></path>
            <path d="M62.5,124.527398 L62.5,128.527398" id="Stroke-950" sketch:type="MSShapeGroup"></path>
            <path d="M71.5,124.527398 L71.5,128.527398" id="Stroke-951" sketch:type="MSShapeGroup"></path>
            <path d="M55.5,136.527398 L59.5,136.527398" id="Stroke-952" sketch:type="MSShapeGroup"></path>
            <path d="M55.5,140.527398 L59.5,140.527398" id="Stroke-953" sketch:type="MSShapeGroup"></path>
            <path d="M55.5,131.527398 L59.5,131.527398" id="Stroke-954" sketch:type="MSShapeGroup"></path>
            <path d="M67.5,147.527398 L67.5,143.527398" id="Stroke-955" sketch:type="MSShapeGroup"></path>
            <path d="M71.5,147.527398 L71.5,143.527398" id="Stroke-956" sketch:type="MSShapeGroup"></path>
            <path d="M62.5,147.527398 L62.5,143.527398" id="Stroke-957" sketch:type="MSShapeGroup"></path>
            <path d="M78.5,135.527398 L74.5,135.527398" id="Stroke-958" sketch:type="MSShapeGroup"></path>
            <path d="M78.5,131.527398 L74.5,131.527398" id="Stroke-959" sketch:type="MSShapeGroup"></path>
            <path d="M78.5,140.527398 L74.5,140.527398" id="Stroke-960" sketch:type="MSShapeGroup"></path>
            <path d="M72.5,139.527398 C72.5,140.628398 71.6,141.527398 70.5,141.527398 L63.5,141.527398 C62.4,141.527398 61.5,140.628398 61.5,139.527398 L61.5,132.527398 C61.5,131.427398 62.4,130.527398 63.5,130.527398 L70.5,130.527398 C71.6,130.527398 72.5,131.427398 72.5,132.527398 L72.5,139.527398 L72.5,139.527398 L72.5,139.527398 Z" id="Stroke-961" sketch:type="MSShapeGroup"></path>
            <path d="M69.6855,138.027398 L69.6855,134.111398 L67.9565,136.601398 L70.0005,136.601398" id="Stroke-962" sketch:type="MSShapeGroup"></path>
            <path d="M65.5,135.714898 C66.37,135.714898 66.522,136.456898 66.522,136.868898 C66.522,137.282898 66.37,138.027898 65.5,138.027898 C64.63,138.027898 64.478,137.282898 64.478,136.868898 C64.478,136.456898 64.63,135.714898 65.5,135.714898 L65.5,135.714898 L65.5,135.714898 Z" id="Stroke-963" sketch:type="MSShapeGroup"></path>
            <path d="M65.9873,134.068398 C64.7023,134.068398 64.4783,135.168398 64.4783,135.777398 L64.4783,136.869398" id="Stroke-964" sketch:type="MSShapeGroup"></path>
            <path d="M650.5,137 C650.5,143.352 645.352,148.5 639,148.5 C632.648,148.5 627.5,143.352 627.5,137 C627.5,130.648 632.648,125.5 639,125.5 C645.352,125.5 650.5,130.648 650.5,137 L650.5,137 L650.5,137 Z" id="Stroke-4111" sketch:type="MSShapeGroup"></path>
            <path id="Stroke-4112" sketch:type="MSShapeGroup" d="M635.9619,128.2388 C635.7549,127.5288 635.6129,126.7898 635.5459,126.0298"></path>
            <path d="M644.6904,136.2676 C641.8354,135.6856 639.3664,134.0476 637.7084,131.7776" id="Stroke-4113" sketch:type="MSShapeGroup"></path>
            <path id="Stroke-4114" sketch:type="MSShapeGroup" d="M650.5,135.9292 C649.898,136.1262 649.363,136.2762 648.721,136.3722"></path>
            <path d="M642.46,143.1816 C640.654,145.2346 638.522,146.9456 636.176,148.2656" id="Stroke-4115" sketch:type="MSShapeGroup"></path>
            <path d="M645.8203,138.2388 C645.3723,139.1168 644.8753,140.0388 644.3343,140.8408" id="Stroke-4116" sketch:type="MSShapeGroup"></path>
            <path d="M648.2891,130.2187 C648.1141,131.6787 647.8191,133.0967 647.3631,134.5487" id="Stroke-4117" sketch:type="MSShapeGroup"></path>
            <path d="M630.7939,141.5962 C629.9919,141.4092 629.0189,141.1952 628.2529,140.9582" id="Stroke-4118" sketch:type="MSShapeGroup"></path>
            <path d="M637.4541,142.5088 C635.7861,142.4408 634.2391,142.2628 632.7091,141.9998" id="Stroke-4119" sketch:type="MSShapeGroup"></path>
            <path id="Stroke-4120" sketch:type="MSShapeGroup" d="M641.9775,142.4365 C641.4595,142.4735 641.0125,142.5015 640.5005,142.5185"></path>
            <path d="M649.6055,141.166 C648.0185,141.595 646.5155,141.902 644.9185,142.128" id="Stroke-4121" sketch:type="MSShapeGroup"></path>
            <path d="M634.6475,129.8164 C634.5355,129.7884 634.4215,129.7584 634.3085,129.7274 C633.2215,129.4244 632.2155,128.9754 631.3045,128.4074" id="Stroke-4122" sketch:type="MSShapeGroup"></path>
            <path d="M645.0752,127.2344 C643.3192,128.7744 641.0352,129.8164 638.6842,130.0824" id="Stroke-4123" sketch:type="MSShapeGroup"></path>
            <path d="M639.874,143.6572 C640.685,144.9182 641.663,146.5822 642.142,148.0332" id="Stroke-4124" sketch:type="MSShapeGroup"></path>
            <path d="M634.54,138.3691 C635.697,139.0911 637.09,140.3181 638.053,141.2761" id="Stroke-4125" sketch:type="MSShapeGroup"></path>
            <path d="M627.5615,135.8228 C628.7285,135.9898 629.7895,136.2678 630.8725,136.6458" id="Stroke-4126" sketch:type="MSShapeGroup"></path>
            <path d="M631.334,142.9268 C631.06,143.4548 630.675,144.0848 630.33,144.5668" id="Stroke-4127" sketch:type="MSShapeGroup"></path>
            <path id="Stroke-4128" sketch:type="MSShapeGroup" d="M632.4717,139.439 C632.3827,139.967 632.2607,140.581 632.1067,141.082"></path>
            <path d="M630.0244,129.7744 C631.2854,131.3824 632.1544,133.3114 632.4894,135.4184" id="Stroke-4129" sketch:type="MSShapeGroup"></path>
            <path d="M638.6875,130.126 C638.6875,131.23 637.7915,132.126 636.6875,132.126 C635.5835,132.126 634.6875,131.23 634.6875,130.126 C634.6875,129.021 635.5835,128.126 636.6875,128.126 C637.7915,128.126 638.6875,129.021 638.6875,130.126 L638.6875,130.126 L638.6875,130.126 Z" id="Stroke-4130" sketch:type="MSShapeGroup"></path>
            <path d="M634.709,137.438 C634.709,138.542 633.813,139.438 632.709,139.438 C631.605,139.438 630.709,138.542 630.709,137.438 C630.709,136.334 631.605,135.438 632.709,135.438 C633.813,135.438 634.709,136.334 634.709,137.438 L634.709,137.438 L634.709,137.438 Z" id="Stroke-4131" sketch:type="MSShapeGroup"></path>
            <path d="M632.709,142 C632.709,142.552 632.261,143 631.709,143 C631.156,143 630.709,142.552 630.709,142 C630.709,141.449 631.156,141 631.709,141 C632.261,141 632.709,141.449 632.709,142 L632.709,142 L632.709,142 Z" id="Stroke-4132" sketch:type="MSShapeGroup"></path>
            <path d="M640.5,142.438 C640.5,143.266 639.829,143.938 639,143.938 C638.171,143.938 637.5,143.266 637.5,142.438 C637.5,141.61 638.171,140.938 639,140.938 C639.829,140.938 640.5,141.61 640.5,142.438 L640.5,142.438 L640.5,142.438 Z" id="Stroke-4133" sketch:type="MSShapeGroup"></path>
            <path d="M644.9219,142.0312 C644.9219,142.8602 644.2509,143.5312 643.4219,143.5312 C642.5939,143.5312 641.9219,142.8602 641.9219,142.0312 C641.9219,141.2032 642.5939,140.5312 643.4219,140.5312 C644.2509,140.5312 644.9219,141.2032 644.9219,142.0312 L644.9219,142.0312 L644.9219,142.0312 Z" id="Stroke-4134" sketch:type="MSShapeGroup"></path>
            <path d="M648.709,136.438 C648.709,137.542 647.813,138.438 646.709,138.438 C645.605,138.438 644.709,137.542 644.709,136.438 C644.709,135.334 645.605,134.438 646.709,134.438 C647.813,134.438 648.709,135.334 648.709,136.438 L648.709,136.438 L648.709,136.438 Z" id="Stroke-4135" sketch:type="MSShapeGroup"></path>
            <path d="M494.5,137.5 L483.5,132.5 L483.5,140.5 L494.5,145.5 L494.5,137.5 L494.5,137.5 L494.5,137.5 Z" id="Stroke-200" sketch:type="MSShapeGroup"></path>
            <path d="M506.5,132.5 L494.5,137.5 L494.5,145.5 L506.5,140.5 L506.5,132.5 L506.5,132.5 L506.5,132.5 Z" id="Stroke-201" sketch:type="MSShapeGroup"></path>
            <path d="M498,133 C498,133.828 496.656,134.5 495,134.5 C493.343,134.5 492,133.828 492,133 C492,132.172 493.343,131.5 495,131.5 C496.656,131.5 498,132.172 498,133 L498,133 L498,133 Z" id="Stroke-202" sketch:type="MSShapeGroup"></path>
            <path d="M498,127.5 C498,128.328 496.656,129 495,129 C493.343,129 492,128.328 492,127.5 C492,126.672 493.343,126 495,126 C496.656,126 498,126.672 498,127.5 L498,127.5 L498,127.5 Z" id="Stroke-203" sketch:type="MSShapeGroup"></path>
            <path d="M505,130.5 C505,131.328 503.656,132 502,132 C500.343,132 499,131.328 499,130.5 C499,129.672 500.343,129 502,129 C503.656,129 505,129.672 505,130.5 L505,130.5 L505,130.5 Z" id="Stroke-204" sketch:type="MSShapeGroup"></path>
            <path d="M491.5,130.5 C491.5,131.328 490.156,132 488.5,132 C486.843,132 485.5,131.328 485.5,130.5 C485.5,129.672 486.843,129 488.5,129 C490.156,129 491.5,129.672 491.5,130.5 L491.5,130.5 L491.5,130.5 Z" id="Stroke-205" sketch:type="MSShapeGroup"></path>
            <path d="M486.0742,131.3809 L483.5002,132.4999" id="Stroke-206" sketch:type="MSShapeGroup"></path>
            <path d="M492.7373,128.4844 L490.5823,129.4214" id="Stroke-207" sketch:type="MSShapeGroup"></path>
            <path d="M499.6943,129.541 L497.2603,128.483" id="Stroke-208" sketch:type="MSShapeGroup"></path>
            <path d="M506.5,132.5 L504.2,131.5" id="Stroke-209" sketch:type="MSShapeGroup"></path>
            <path d="M637.5,17.5317 C637.5,20.2927 635.262,22.5317 632.5,22.5317 C629.738,22.5317 627.5,20.2927 627.5,17.5317 C627.5,14.7697 629.738,12.5317 632.5,12.5317 C635.262,12.5317 637.5,14.7697 637.5,17.5317 L637.5,17.5317 L637.5,17.5317 Z" id="Stroke-321" sketch:type="MSShapeGroup"></path>
            <path d="M637.5,6.0317 L637.5,2.0317 C636.75,1.2817 635.25,1.2817 634.5,2.0317 L633,6.0317 L631.5,7.5317 L628.5,14.5317" id="Stroke-322" sketch:type="MSShapeGroup"></path>
            <path d="M640.5,17.5317 C640.5,20.2927 642.738,22.5317 645.5,22.5317 C648.262,22.5317 650.5,20.2927 650.5,17.5317 C650.5,14.7697 648.262,12.5317 645.5,12.5317 C642.738,12.5317 640.5,14.7697 640.5,17.5317 L640.5,17.5317 L640.5,17.5317 Z" id="Stroke-323" sketch:type="MSShapeGroup"></path>
            <path d="M640.5,6.0317 L640.5,2.0947 C641.25,1.3447 642.75,1.3447 643.5,2.0947 L645,6.0317 L646.5,7.5317 L649.5,14.5317" id="Stroke-324" sketch:type="MSShapeGroup"></path>
            <path d="M635,10.0317 C635,8.9267 636.791,8.0317 639,8.0317 C641.209,8.0317 643,8.9267 643,10.0317" id="Stroke-325" sketch:type="MSShapeGroup"></path>
            <path d="M637.5,17.5317 L637.5,8.1767" id="Stroke-326" sketch:type="MSShapeGroup"></path>
            <path d="M640.5,17.5317 L640.5,8.1767" id="Stroke-327" sketch:type="MSShapeGroup"></path>
            <path d="M629.5,17.5317 C629.5,15.8757 630.844,14.5317 632.5,14.5317" id="Stroke-328" sketch:type="MSShapeGroup"></path>
            <path d="M642.5,17.5317 C642.5,15.8757 643.844,14.5317 645.5,14.5317" id="Stroke-329" sketch:type="MSShapeGroup"></path>
            <path d="M215.4199,19.25 L217.7179,21.546 L220.5459,18.718 L218.2499,16.421 C218.7019,15.681 219.0439,14.367 219.2539,13.5 L222.4999,13.5 L222.4999,10.5 L219.2529,10.5 C219.0439,9.633 218.7019,8.319 218.2499,7.578 L220.5459,5.283 L217.7169,2.454 L215.4199,4.75 C214.6799,4.298 213.3669,3.956 212.4999,3.748 L212.4999,0.5 L209.4999,0.5 L209.4999,3.748 C208.6329,3.956 207.3189,4.298 206.5789,4.75 L204.2819,2.454 L201.4529,5.283 L203.7499,7.579 C203.2979,8.319 202.9559,9.633 202.7459,10.5 L199.4999,10.5 L199.4999,13.5 L202.7459,13.5 C202.9559,14.367 203.2979,15.681 203.7499,16.421 L201.4529,18.718 L204.2819,21.546 L206.5779,19.249" id="Stroke-1118" sketch:type="MSShapeGroup"></path>
            <path d="M209.5,20.5 L212.5,20.5" id="Stroke-1119" sketch:type="MSShapeGroup"></path>
            <path d="M209.5,22.5 L212.5,22.5" id="Stroke-1120" sketch:type="MSShapeGroup"></path>
            <path d="M211,22.5 L211,23.5" id="Stroke-1121" sketch:type="MSShapeGroup"></path>
            <path d="M216.8691,12.0439 C216.8691,8.9819 214.2411,6.4999 211.0001,6.4999 C207.7581,6.4999 205.1311,8.9819 205.1311,12.0439 C205.1311,14.5689 207.0531,16.6989 209.5001,17.3669 L209.5001,18.4999 L212.5001,18.4999 L212.5001,17.3669 C214.9471,16.6989 216.8691,14.5689 216.8691,12.0439 L216.8691,12.0439 L216.8691,12.0439 Z" id="Stroke-1122" sketch:type="MSShapeGroup"></path>
            <path d="M772.5,12.5 L781.5,12.5" id="Stroke-832" sketch:type="MSShapeGroup"></path>
            <path d="M784.5,12.5 L793.5,12.5" id="Stroke-833" sketch:type="MSShapeGroup"></path>
            <path d="M793.5,7.5 L772.5,7.5 L772.5,21.5 L793.5,21.5 L793.5,7.5 L793.5,7.5 Z" id="Stroke-834" sketch:type="MSShapeGroup"></path>
            <path d="M784.5,15.5 L781.5,15.5 L781.5,11.5 L784.5,11.5 L784.5,15.5 L784.5,15.5 Z" id="Stroke-835" sketch:type="MSShapeGroup"></path>
            <path d="M779,7.5 C779,5.291 780.789,3.5 783,3.5 C785.209,3.5 787,5.291 787,7.5" id="Stroke-836" sketch:type="MSShapeGroup"></path>
            <path d="M1198.5,0.5 L1220.5,0.5 L1220.5,23.5 L1198.5,23.5 L1198.5,0.5 L1198.5,0.5 Z" id="Stroke-816" sketch:type="MSShapeGroup"></path>
            <path d="M1209.5,14.5 L1209.5,7.5" id="Stroke-817" sketch:type="MSShapeGroup"></path>
            <path d="M1215.5312,14.5 L1215.5312,12.5" id="Stroke-818" sketch:type="MSShapeGroup"></path>
            <path d="M1203.5,8.5 L1203.5,3.5" id="Stroke-819" sketch:type="MSShapeGroup"></path>
            <path d="M1203.5,14.5 L1203.5,10.5" id="Stroke-820" sketch:type="MSShapeGroup"></path>
            <path d="M1215.5312,10.5 L1215.5312,3.5" id="Stroke-821" sketch:type="MSShapeGroup"></path>
            <path d="M1209.5,5.5 L1209.5,3.5" id="Stroke-822" sketch:type="MSShapeGroup"></path>
            <path d="M1213.531,10.5 L1217.531,10.5 L1217.531,12.5 L1213.531,12.5 L1213.531,10.5 L1213.531,10.5 Z" id="Stroke-823" sketch:type="MSShapeGroup"></path>
            <path d="M1207.5,5.5 L1211.5,5.5 L1211.5,7.5 L1207.5,7.5 L1207.5,5.5 L1207.5,5.5 Z" id="Stroke-824" sketch:type="MSShapeGroup"></path>
            <path d="M1201.5,8.5 L1205.5,8.5 L1205.5,10.5 L1201.5,10.5 L1201.5,8.5 L1201.5,8.5 Z" id="Stroke-825" sketch:type="MSShapeGroup"></path>
            <path d="M1214.042,19 C1214.042,18.173 1214.714,17.5 1215.542,17.5 C1216.37,17.5 1217.042,18.173 1217.042,19 C1217.042,19.829 1216.37,20.5 1215.542,20.5 C1214.714,20.5 1214.042,19.829 1214.042,19 L1214.042,19 L1214.042,19 Z" id="Stroke-826" sketch:type="MSShapeGroup"></path>
            <path d="M1208,19 C1208,18.173 1208.672,17.5 1209.5,17.5 C1210.328,17.5 1211,18.173 1211,19 C1211,19.829 1210.328,20.5 1209.5,20.5 C1208.672,20.5 1208,19.829 1208,19 L1208,19 L1208,19 Z" id="Stroke-827" sketch:type="MSShapeGroup"></path>
            <path d="M1202,19 C1202,18.173 1202.672,17.5 1203.5,17.5 C1204.328,17.5 1205,18.173 1205,19 C1205,19.829 1204.328,20.5 1203.5,20.5 C1202.672,20.5 1202,19.829 1202,19 L1202,19 L1202,19 Z" id="Stroke-828" sketch:type="MSShapeGroup"></path>
            <path d="M491.2539,17.8672 L500.8669,8.2542 C502.3229,8.8702 504.0679,8.5882 505.2559,7.4002 C506.4429,6.2142 506.7249,4.5422 506.1079,3.0862 L504.1949,5.0752 L502.0739,5.0752 L502.0739,2.8042 L503.9889,0.8902 C502.5309,0.2742 500.7849,0.5572 499.5989,1.7452 C498.4119,2.9312 498.1289,4.6772 498.7439,6.1332 L489.1329,15.7462 C487.6769,15.1302 485.9309,15.4122 484.7439,16.5992 C483.5579,17.7862 483.2749,19.5322 483.8909,20.9882 L485.8049,19.0752 L488.0739,19.0752 L488.0739,21.1952 L486.0859,23.1102 C487.5429,23.7252 489.2509,23.4422 490.4379,22.2562 C491.6249,21.0702 491.8699,19.3232 491.2539,17.8672 L491.2539,17.8672 L491.2539,17.8672 Z" id="Stroke-829" sketch:type="MSShapeGroup"></path>
            <path d="M494.999,9.8779 L491.254,6.1329 C491.87,4.6769 491.588,2.9309 490.4,1.7449 C489.214,0.5579 487.543,0.2749 486.086,0.8909 L488.074,2.8049 L488.074,5.0749 L485.805,5.0749 L483.891,3.0859 C483.274,4.5419 483.558,6.2509 484.744,7.4379 C485.931,8.6249 487.677,8.8889 489.133,8.2739 L492.879,12.0089" id="Stroke-830" sketch:type="MSShapeGroup"></path>
            <path d="M494.999,14.1201 L498.746,17.8681 C498.13,19.3241 498.412,21.0701 499.6,22.2571 C500.786,23.4441 502.532,23.7251 503.989,23.1101 L502.074,21.1961 L502.074,19.0751 L504.195,19.0751 L506.109,20.9881 C506.726,19.5321 506.442,17.7871 505.256,16.6001 C504.069,15.4131 502.323,15.1301 500.867,15.7471 L497.122,12.0001" id="Stroke-831" sketch:type="MSShapeGroup"></path>
            <path d="M348.5,6.5 C348.5,7.053 348.051,7.5 347.5,7.5 L345.5,7.5 C344.945,7.5 344.5,7.053 344.5,6.5 L344.5,1.5 C344.5,0.948 344.945,0.5 345.5,0.5 L347.5,0.5 C348.051,0.5 348.5,0.948 348.5,1.5 L348.5,6.5 L348.5,6.5 L348.5,6.5 Z" id="Stroke-854" sketch:type="MSShapeGroup"></path>
            <path d="M351.5,14.5 L353.5,14.5 L353.5,6.5 L351.5,6.5 L351.5,14.5 L351.5,14.5 Z" id="Stroke-855" sketch:type="MSShapeGroup"></path>
            <path d="M354.5,23.5 L350.5,23.5 L350.5,14.5 L354.5,14.5 L354.5,23.5 L354.5,23.5 Z" id="Stroke-856" sketch:type="MSShapeGroup"></path>
            <path d="M359,6.5 C359,4.566 360.564,3 362.5,3 L362.5,1.5 L348.5,1.5 L348.5,6.5 L359,6.5 L359,6.5 L359,6.5 Z" id="Stroke-857" sketch:type="MSShapeGroup"></path>
            <path d="M1077.5,23.5 L1054.5,23.5 L1054.5,0.5 L1077.5,0.5 L1077.5,23.5 L1077.5,23.5 Z" id="Stroke-1095" sketch:type="MSShapeGroup"></path>
            <path d="M1057.5,6.5 C1057.5,8.157 1058.844,9.5 1060.5,9.5 L1071.5,9.5 C1073.156,9.5 1074.5,8.157 1074.5,6.5 C1074.5,4.843 1073.156,3.5 1071.5,3.5 L1060.5,3.5 C1058.844,3.5 1057.5,4.843 1057.5,6.5 L1057.5,6.5 L1057.5,6.5 Z" id="Stroke-1096" sketch:type="MSShapeGroup"></path>
            <path d="M1057.5,17.5 C1057.5,19.157 1058.844,20.5 1060.5,20.5 L1071.5,20.5 C1073.156,20.5 1074.5,19.157 1074.5,17.5 C1074.5,15.843 1073.156,14.5 1071.5,14.5 L1060.5,14.5 C1058.844,14.5 1057.5,15.843 1057.5,17.5 L1057.5,17.5 L1057.5,17.5 Z" id="Stroke-1097" sketch:type="MSShapeGroup"></path>
            <path d="M1063.5,6.5 C1063.5,8.157 1062.156,9.5 1060.5,9.5 C1058.844,9.5 1057.5,8.157 1057.5,6.5 C1057.5,4.843 1058.844,3.5 1060.5,3.5 C1062.156,3.5 1063.5,4.843 1063.5,6.5 L1063.5,6.5 L1063.5,6.5 Z" id="Stroke-1098" sketch:type="MSShapeGroup"></path>
            <path d="M1074.5,17.5 C1074.5,19.157 1073.156,20.5 1071.5,20.5 C1069.844,20.5 1068.5,19.157 1068.5,17.5 C1068.5,15.843 1069.844,14.5 1071.5,14.5 C1073.156,14.5 1074.5,15.843 1074.5,17.5 L1074.5,17.5 L1074.5,17.5 Z" id="Stroke-1099" sketch:type="MSShapeGroup"></path>
            <path d="M938.5,17.9394977 C938.5,18.8164977 937.829,19.5274977 937,19.5274977 L917,19.5274977 C916.172,19.5274977 915.5,18.8164977 915.5,17.9394977 L915.5,3.11549766 C915.5,2.23849766 916.172,1.52749766 917,1.52749766 L937,1.52749766 C937.829,1.52749766 938.5,2.23849766 938.5,3.11549766 L938.5,17.9394977 L938.5,17.9394977 L938.5,17.9394977 Z" id="Stroke-21" sketch:type="MSShapeGroup"></path>
            <path d="M920,21.5273977 L934,21.5273977" id="Stroke-22" sketch:type="MSShapeGroup"></path>
            <path d="M927,19.5273977 L927,21.5273977" id="Stroke-23" sketch:type="MSShapeGroup"></path>
            <path d="M927.5,17.5273977 C927.5,17.8033977 927.276,18.0273977 927,18.0273977 C926.724,18.0273977 926.5,17.8033977 926.5,17.5273977 C926.5,17.2513977 926.724,17.0273977 927,17.0273977 C927.276,17.0273977 927.5,17.2513977 927.5,17.5273977 L927.5,17.5273977 L927.5,17.5273977 Z" id="Stroke-24" sketch:type="MSShapeGroup"></path>
            <path d="M915.5,15.5273977 L938.5,15.5273977" id="Stroke-25" sketch:type="MSShapeGroup"></path>
            <path d="M76.2275,4.5493 L71.9855,8.7923 L69.1575,5.9653 L73.3995,1.7213 L76.2275,4.5493 L76.2275,4.5493 L76.2275,4.5493 Z" id="Stroke-4167" sketch:type="MSShapeGroup"></path>
            <path d="M62.793,17.9849 L58.55,22.2279 L55.722,19.3989 L59.965,15.1569 L62.793,17.9849 L62.793,17.9849 L62.793,17.9849 Z" id="Stroke-4168" sketch:type="MSShapeGroup"></path>
            <path d="M63.5,9.5 C61.742,11.257 61.742,14.106 63.5,15.864 L69.864,9.5 C68.106,7.743 65.258,7.743 63.5,9.5 L63.5,9.5 L63.5,9.5 Z" id="Stroke-4169" sketch:type="MSShapeGroup"></path>
            <path d="M68.1123,11.252 C68.8933,12.033 68.9383,13.377 68.1583,14.158 C67.3763,14.939 66.0573,14.868 65.2763,14.087" id="Stroke-4170" sketch:type="MSShapeGroup"></path>
            <path d="M71.6895,12.0073 C71.9135,13.5203 71.4425,15.1153 70.2795,16.2783 C69.1215,17.4353 67.5375,17.9073 66.0325,17.6933" id="Stroke-4171" sketch:type="MSShapeGroup"></path>
            <path d="M74.6943,11.8569 C74.9533,14.1889 74.1883,16.6119 72.4003,18.3999 C70.6103,20.1889 68.1853,20.9539 65.8513,20.6939" id="Stroke-4172" sketch:type="MSShapeGroup"></path>
            <path d="M77.5762,10.8252 C78.1782,14.2402 77.1592,17.8832 74.5212,20.5202 C71.9082,23.1352 68.3072,24.1582 64.9212,23.5932" id="Stroke-4173" sketch:type="MSShapeGroup"></path>
            <path d="M1347.5,23.5 L1341.5,23.5 L1341.5,5.5 L1347.5,5.5 L1347.5,23.5 L1347.5,23.5 Z" id="Stroke-7387" sketch:type="MSShapeGroup"></path>
            <path d="M1355.5,23.5 L1349.5,23.5 L1349.5,5.5 L1355.5,5.5 L1355.5,23.5 L1355.5,23.5 Z" id="Stroke-7388" sketch:type="MSShapeGroup"></path>
            <path d="M1363.5,23.5 L1357.5,23.5 L1357.5,5.5 L1363.5,5.5 L1363.5,23.5 L1363.5,23.5 Z" id="Stroke-7389" sketch:type="MSShapeGroup"></path>
            <path d="M1345.5,0.5 L1343.5,0.5 L1342.5,5.5 L1346.5,5.5 L1345.5,0.5 L1345.5,0.5 L1345.5,0.5 Z" id="Stroke-7390" sketch:type="MSShapeGroup"></path>
            <path d="M1341.5,8.5 L1347.5,8.5" id="Stroke-7391" sketch:type="MSShapeGroup"></path>
            <path d="M1341.5,20.5 L1347.5,20.5" id="Stroke-7392" sketch:type="MSShapeGroup"></path>
            <path d="M1353.5,0.5 L1351.5,0.5 L1350.5,5.5 L1354.5,5.5 L1353.5,0.5 L1353.5,0.5 L1353.5,0.5 Z" id="Stroke-7393" sketch:type="MSShapeGroup"></path>
            <path d="M1349.5,8.5 L1355.5,8.5" id="Stroke-7394" sketch:type="MSShapeGroup"></path>
            <path d="M1349.5,20.5 L1355.5,20.5" id="Stroke-7395" sketch:type="MSShapeGroup"></path>
            <path d="M1361.5,0.5 L1359.5,0.5 L1358.5,5.5 L1362.5,5.5 L1361.5,0.5 L1361.5,0.5 L1361.5,0.5 Z" id="Stroke-7396" sketch:type="MSShapeGroup"></path>
            <path d="M1357.5,8.5 L1363.5,8.5" id="Stroke-7397" sketch:type="MSShapeGroup"></path>
            <path d="M1357.5,20.5 L1363.5,20.5" id="Stroke-7398" sketch:type="MSShapeGroup"></path>
            <path d="M1065,147.50025 L1057,147.50025 L1057,134.50025 L1065,134.50025 L1065,147.50025 L1065,147.50025 Z" id="Stroke-8" sketch:type="MSShapeGroup"></path>
            <path d="M1062,130.50025 L1060,130.50025 L1060,128.50025 L1062,128.50025 L1062,130.50025 L1062,130.50025 Z" id="Stroke-10" sketch:type="MSShapeGroup"></path>
            <path d="M1063.4998,134.49995 L1057.9998,134.49995 L1058.9998,132.49995 L1062.4998,132.49995 L1063.4998,134.49995 L1063.4998,134.49995 L1063.4998,134.49995 Z" id="Stroke-11" sketch:type="MSShapeGroup"></path>
            <path d="M1060.9998,130.49995 L1060.9998,132.49995" id="Stroke-12" sketch:type="MSShapeGroup"></path>
            <path d="M1065.9998,129.49995 L1068.9998,129.49995" id="Stroke-13" sketch:type="MSShapeGroup"></path>
            <path d="M1065.4998,131.49995 L1068.4998,132.49995" id="Stroke-14" sketch:type="MSShapeGroup"></path>
            <path d="M1065.4998,127.49995 L1068.4998,126.49995" id="Stroke-15" sketch:type="MSShapeGroup"></path>
            <path d="M1070.9998,134.49995 C1072.4408,134.49995 1073.6268,133.34595 1072.9998,131.99995 C1074.2398,131.80295 1074.9998,130.79595 1074.9998,129.49995 C1074.9998,128.23995 1074.1898,127.23895 1072.9998,126.99995 C1073.3848,125.66395 1072.2808,124.49995 1070.9998,124.49995" id="Stroke-16" sketch:type="MSShapeGroup"></path>
            <path d="M76.5,267.5 C76.5,269.709 74.709,271.5 72.5,271.5 L60.5,271.5 C58.291,271.5 56.5,269.709 56.5,267.5 L56.5,262.5 C56.5,260.291 58.291,258.5 60.5,258.5 L72.5,258.5 C74.709,258.5 76.5,260.291 76.5,262.5 L76.5,267.5 L76.5,267.5 L76.5,267.5 Z" id="Stroke-779" sketch:type="MSShapeGroup"></path>
            <path d="M74.5312,265.5 C74.5312,267.157 73.1872,268.5 71.5312,268.5 C69.8752,268.5 68.5312,267.157 68.5312,265.5 C68.5312,263.843 69.8752,262.5 71.5312,262.5 C73.1872,262.5 74.5312,263.843 74.5312,265.5 L74.5312,265.5 L74.5312,265.5 Z" id="Stroke-780" sketch:type="MSShapeGroup"></path>
            <path d="M64.5312,265.5 C64.5312,267.157 63.1872,268.5 61.5312,268.5 C59.8752,268.5 58.5312,267.157 58.5312,265.5 C58.5312,263.843 59.8752,262.5 61.5312,262.5 C63.1872,262.5 64.5312,263.843 64.5312,265.5 L64.5312,265.5 L64.5312,265.5 Z" id="Stroke-781" sketch:type="MSShapeGroup"></path>
            <path d="M67.5,262.5 L65.5,262.5 L63.5,260.5 L69.5,260.5 L67.5,262.5 L67.5,262.5 L67.5,262.5 Z" id="Stroke-782" sketch:type="MSShapeGroup"></path>
            <path d="M65,269.5 L68,269.5" id="Stroke-783" sketch:type="MSShapeGroup"></path>
            <path d="M71.5312,265.5 L73.7192,261.031" id="Stroke-784" sketch:type="MSShapeGroup"></path>
            <path d="M61.5,265.5 L61.5,260.5" id="Stroke-785" sketch:type="MSShapeGroup"></path>
            <path d="M68.5,256.5 L64.5,256.5 L64.5,258.5 L68.5,258.5 L68.5,256.5 L68.5,256.5 Z" id="Stroke-786" sketch:type="MSShapeGroup"></path>
            <path d="M66.5,256.5 L66.5,251.5" id="Stroke-787" sketch:type="MSShapeGroup"></path>
            <path id="Stroke-788" sketch:type="MSShapeGroup" d="M75.0859,248.5039 C75.3639,249.4939 75.5129,250.5379 75.5129,251.6179 C75.5129,252.6349 75.3809,253.6199 75.1329,254.5589"></path>
            <path id="Stroke-789" sketch:type="MSShapeGroup" d="M72.0557,249.0342 C72.3517,249.8392 72.5127,250.7102 72.5127,251.6182 C72.5127,252.4552 72.3747,253.2612 72.1217,254.0132"></path>
            <path d="M68.9492,249.7139 C69.3062,250.2619 69.5122,250.9149 69.5122,251.6179 C69.5122,252.2859 69.3262,252.9109 69.0002,253.4419" id="Stroke-790" sketch:type="MSShapeGroup"></path>
            <path id="Stroke-791" sketch:type="MSShapeGroup" d="M57.9141,248.5039 C57.6351,249.4939 57.4871,250.5379 57.4871,251.6179 C57.4871,252.6349 57.6191,253.6199 57.8661,254.5589"></path>
            <path id="Stroke-792" sketch:type="MSShapeGroup" d="M60.9434,249.0342 C60.6484,249.8392 60.4874,250.7102 60.4874,251.6182 C60.4874,252.4552 60.6254,253.2612 60.8774,254.0132"></path>
            <path d="M64.0488,249.7139 C63.6938,250.2619 63.4878,250.9149 63.4878,251.6179 C63.4878,252.2859 63.6738,252.9109 63.9998,253.4419" id="Stroke-793" sketch:type="MSShapeGroup"></path>
            <path d="M938.5,143.5 C938.5,144.604 937.605,145.5 936.5,145.5 L917.5,145.5 C916.395,145.5 915.5,144.604 915.5,143.5 L915.5,129.5 C915.5,128.396 916.395,127.5 917.5,127.5 L936.5,127.5 C937.605,127.5 938.5,128.396 938.5,129.5 L938.5,143.5 L938.5,143.5 L938.5,143.5 Z" id="Stroke-73" sketch:type="MSShapeGroup"></path>
            <path d="M915.5,132.5 L938.5,132.5" id="Stroke-75" sketch:type="MSShapeGroup"></path>
            <path d="M919.5,130 C919.5,130.276 919.276,130.5 919,130.5 C918.724,130.5 918.5,130.276 918.5,130 C918.5,129.724 918.724,129.5 919,129.5 C919.276,129.5 919.5,129.724 919.5,130 L919.5,130 L919.5,130 Z" id="Stroke-77" sketch:type="MSShapeGroup"></path>
            <path d="M922.5,130 C922.5,130.276 922.276,130.5 922,130.5 C921.724,130.5 921.5,130.276 921.5,130 C921.5,129.724 921.724,129.5 922,129.5 C922.276,129.5 922.5,129.724 922.5,130 L922.5,130 L922.5,130 Z" id="Stroke-79" sketch:type="MSShapeGroup"></path>
            <path d="M925.5,130 C925.5,130.276 925.276,130.5 925,130.5 C924.724,130.5 924.5,130.276 924.5,130 C924.5,129.724 924.724,129.5 925,129.5 C925.276,129.5 925.5,129.724 925.5,130 L925.5,130 L925.5,130 Z" id="Stroke-81" sketch:type="MSShapeGroup"></path>
            <path d="M922.5,138.5 L919.5,138.5 L919.5,135.5 L922.5,135.5 L922.5,138.5 L922.5,138.5 Z" id="Stroke-83" sketch:type="MSShapeGroup"></path>
            <path d="M922.5,143.5 L919.5,143.5 L919.5,140.5 L922.5,140.5 L922.5,143.5 L922.5,143.5 Z" id="Stroke-85" sketch:type="MSShapeGroup"></path>
            <path d="M928.5,138.5 L925.5,138.5 L925.5,135.5 L928.5,135.5 L928.5,138.5 L928.5,138.5 Z" id="Stroke-86" sketch:type="MSShapeGroup"></path>
            <path d="M928.5,143.5 L925.5,143.5 L925.5,140.5 L928.5,140.5 L928.5,143.5 L928.5,143.5 Z" id="Stroke-87" sketch:type="MSShapeGroup"></path>
            <path d="M934.5,138.5 L931.5,138.5 L931.5,135.5 L934.5,135.5 L934.5,138.5 L934.5,138.5 Z" id="Stroke-88" sketch:type="MSShapeGroup"></path>
            <path d="M934.5,143.5 L931.5,143.5 L931.5,140.5 L934.5,140.5 L934.5,143.5 L934.5,143.5 Z" id="Stroke-89" sketch:type="MSShapeGroup"></path>
            <path d="M1201.5,131.4956 L1197.52,135.4786 L1203.5,135.4786 L1201.5,131.4956 L1201.5,131.4956 L1201.5,131.4956 Z" id="Stroke-7236" sketch:type="MSShapeGroup"></path>
            <path d="M1203.5,135.4785 L1207.5,142.9785 L1218.552,147.3335 L1207.5,131.4995 L1207.5,142.9785" id="Stroke-7237" sketch:type="MSShapeGroup"></path>
            <path d="M1207.5,131.5 L1201.453,131.496" id="Stroke-7238" sketch:type="MSShapeGroup"></path>
            <path d="M1207.5,131.5 L1214.5,124.646 L1214.5,141.528" id="Stroke-7239" sketch:type="MSShapeGroup"></path>
            <path d="M1214.5,129.9785 L1220.531,126.6355 L1214.719,141.8235" id="Stroke-7240" sketch:type="MSShapeGroup"></path>
            <path d="M484.5,265.5 L484.5,271.5 L505.5,271.5 L505.5,265.5 L506.5,265.5 L506.5,257.5 C506.5,256.396 505.604,255.5 504.5,255.5 L485.5,255.5 C484.396,255.5 483.5,256.396 483.5,257.5 L483.5,265.5 L484.5,265.5 L484.5,265.5 L484.5,265.5 Z" id="Stroke-1431" sketch:type="MSShapeGroup"></path>
            <path d="M497.5,266.5 L492.5,266.5 L492.5,263.5 L497.5,263.5 L497.5,266.5 L497.5,266.5 Z" id="Stroke-1432" sketch:type="MSShapeGroup"></path>
            <path d="M499.5,255.5 L490.5,255.5 L490.5,254.5 C490.5,252.844 491.844,251.5 493.5,251.5 L496.5,251.5 C498.157,251.5 499.5,252.844 499.5,254.5 L499.5,255.5 L499.5,255.5 L499.5,255.5 Z" id="Stroke-1433" sketch:type="MSShapeGroup"></path>
            <path d="M484.5,265.5 L492.5,265.5" id="Stroke-1434" sketch:type="MSShapeGroup"></path>
            <path d="M497.5,265.5 L505.5,265.5" id="Stroke-1435" sketch:type="MSShapeGroup"></path>
            <path d="M361.5,394.5 L346.5,394.5 L346.5,388.5 L361.5,388.5 L361.5,394.5 L361.5,394.5 Z" id="Stroke-6346" sketch:type="MSShapeGroup"></path>
            <path d="M347.5,394.5 L347.5,395.5" id="Stroke-6347" sketch:type="MSShapeGroup"></path>
            <path d="M360.5,394.5 L360.5,395.5" id="Stroke-6348" sketch:type="MSShapeGroup"></path>
            <path d="M359.5,390.5 L359.5,392.5" id="Stroke-6349" sketch:type="MSShapeGroup"></path>
            <path d="M357.5,390.5 L357.5,392.5" id="Stroke-6350" sketch:type="MSShapeGroup"></path>
            <path d="M355.5,390.5 L355.5,392.5" id="Stroke-6351" sketch:type="MSShapeGroup"></path>
            <path d="M361.5,385.5 L361.5,377.5 L357.5,377.5" id="Stroke-6352" sketch:type="MSShapeGroup"></path>
            <path d="M349.5,377.5 L357.5,377.5 L357.5,379.5 L349.5,379.5 L349.5,377.5 L349.5,377.5 Z" id="Stroke-6353" sketch:type="MSShapeGroup"></path>
            <path d="M356.5,372.5 L350.5,372.5 L350.5,377.5 L356.5,377.5 L356.5,372.5 L356.5,372.5 Z" id="Stroke-6354" sketch:type="MSShapeGroup"></path>
            <path d="M354.541,375.0835 C354.541,375.6355 354.094,376.0835 353.541,376.0835 C352.989,376.0835 352.541,375.6355 352.541,375.0835 C352.541,374.5315 352.989,374.0835 353.541,374.0835 C354.094,374.0835 354.541,374.5315 354.541,375.0835 L354.541,375.0835 L354.541,375.0835 Z" id="Stroke-6355" sketch:type="MSShapeGroup"></path>
            <path d="M362.5,388.5 L345.5,388.5 L345.5,385.5 L362.5,385.5 L362.5,388.5 L362.5,388.5 Z" id="Stroke-6356" sketch:type="MSShapeGroup"></path>
            <path d="M646.5,257 C646.5,261.142 643.143,264.5 639,264.5 C634.857,264.5 631.5,261.142 631.5,257 C631.5,252.858 634.857,249.5 639,249.5 C643.143,249.5 646.5,252.858 646.5,257 L646.5,257 L646.5,257 Z" id="Stroke-7206" sketch:type="MSShapeGroup"></path>
            <path d="M642.5,265 C642.5,269.142 639.143,272.5 635,272.5 C630.857,272.5 627.5,269.142 627.5,265 C627.5,260.858 630.857,257.5 635,257.5 C639.143,257.5 642.5,260.858 642.5,265 L642.5,265 L642.5,265 Z" id="Stroke-7207" sketch:type="MSShapeGroup"></path>
            <path d="M650.5,265 C650.5,269.142 647.143,272.5 643,272.5 C638.857,272.5 635.5,269.142 635.5,265 C635.5,260.858 638.857,257.5 643,257.5 C647.143,257.5 650.5,260.858 650.5,265 L650.5,265 L650.5,265 Z" id="Stroke-7208" sketch:type="MSShapeGroup"></path>
            <path d="M791.5,382 C791.5,383.933 789.934,385.5 788,385.5 C786.066,385.5 784.5,383.933 784.5,382 C784.5,380.067 786.066,378.5 788,378.5 C789.934,378.5 791.5,380.067 791.5,382 L791.5,382 L791.5,382 Z" id="Stroke-6342" sketch:type="MSShapeGroup"></path>
            <path d="M789.3125,382 C789.3125,382.725 788.7245,383.312 788.0005,383.312 C787.2755,383.312 786.6875,382.725 786.6875,382 C786.6875,381.275 787.2755,380.688 788.0005,380.688 C788.7245,380.688 789.3125,381.275 789.3125,382 L789.3125,382 L789.3125,382 Z" id="Stroke-6343" sketch:type="MSShapeGroup"></path>
            <path d="M782.4492,383.3364 C782.4822,383.5524 782.5002,383.7734 782.5002,384.0004 C782.5002,386.4854 780.4852,388.5004 778.0002,388.5004 C775.6442,388.5004 773.5382,387.0174 773.5382,384.5004 L771.5002,384.5004 L771.5002,388.5004 C771.5002,390.7094 773.2912,392.5004 775.5002,392.5004 L792.0002,392.5004 C793.1042,392.5004 794.5002,391.6044 794.5002,390.5004 L794.5002,382.5004 C794.5002,374.5074 784.7522,373.5464 782.2172,378.6554" id="Stroke-6344" sketch:type="MSShapeGroup"></path>
            <path d="M773.4062,384.4687 L786.2812,378.9377" id="Stroke-6345" sketch:type="MSShapeGroup"></path>
            <path d="M923.4687,260.063 L918.9827,264.654" id="Stroke-2490" sketch:type="MSShapeGroup"></path>
            <path d="M930.5176,252.8472 L925.5356,257.9432" id="Stroke-2491" sketch:type="MSShapeGroup"></path>
            <path d="M919.5,266 C919.5,267.105 918.604,268 917.5,268 C916.395,268 915.5,267.105 915.5,266 C915.5,264.896 916.395,264 917.5,264 C918.604,264 919.5,264.896 919.5,266 L919.5,266 L919.5,266 Z" id="Stroke-2492" sketch:type="MSShapeGroup"></path>
            <path d="M934,251.5 C934,252.605 933.103,253.5 932,253.5 C930.896,253.5 930,252.605 930,251.5 C930,250.396 930.896,249.5 932,249.5 C933.103,249.5 934,250.396 934,251.5 L934,251.5 L934,251.5 Z" id="Stroke-2493" sketch:type="MSShapeGroup"></path>
            <path d="M926.0234,258.8818 C927.7674,257.3958 930.0294,256.4998 932.5004,256.4998 L936.5004,256.4998" id="Stroke-2494" sketch:type="MSShapeGroup"></path>
            <path d="M922.5,270.5 L922.5,266.5 C922.5,264.27 923.249,262.164 924.484,260.5" id="Stroke-2495" sketch:type="MSShapeGroup"></path>
            <path d="M926,259 C926,259.83 925.328,260.5 924.5,260.5 C923.672,260.5 923,259.83 923,259 C923,258.172 923.672,257.5 924.5,257.5 C925.328,257.5 926,258.172 926,259 L926,259 L926,259 Z" id="Stroke-2496" sketch:type="MSShapeGroup"></path>
            <path d="M923.5,272.5 L921.5,272.5 L921.5,270.5 L923.5,270.5 L923.5,272.5 L923.5,272.5 Z" id="Stroke-2497" sketch:type="MSShapeGroup"></path>
            <path d="M938.5,257.5 L936.5,257.5 L936.5,255.5 L938.5,255.5 L938.5,257.5 L938.5,257.5 Z" id="Stroke-2498" sketch:type="MSShapeGroup"></path>
            <path d="M650.5,395.5 L627.5,395.5 L627.5,372.5 L650.5,372.5 L650.5,395.5 L650.5,395.5 Z" id="Stroke-1902" sketch:type="MSShapeGroup"></path>
            <path d="M638.5,387.5 L638.5,391.484" id="Stroke-1903" sketch:type="MSShapeGroup"></path>
            <path d="M627.5,391.5 L650.5,391.5" id="Stroke-1904" sketch:type="MSShapeGroup"></path>
            <path d="M639.9531,381.5195 C639.9531,381.5195 641.0191,380.4375 642.3751,380.4445 C643.7291,380.4515 645.1211,380.6685 645.2811,381.5215 C645.1561,382.4425 643.7411,382.6615 642.5001,382.6105 C641.2591,382.5575 640.4581,382.0465 639.9531,381.5195 L639.9531,381.5195 L639.9531,381.5195 Z" id="Stroke-1905" sketch:type="MSShapeGroup"></path>
            <path d="M636.9844,381.5195 C636.9844,381.5195 635.9184,380.4375 634.5624,380.4445 C633.2084,380.4515 631.8164,380.6685 631.6564,381.5215 C631.7814,382.4425 633.1964,382.6615 634.4374,382.6105 C635.6784,382.5575 636.4794,382.0465 636.9844,381.5195 L636.9844,381.5195 L636.9844,381.5195 Z" id="Stroke-1906" sketch:type="MSShapeGroup"></path>
            <path d="M637.6113,379.9824 C637.6113,379.9824 638.0403,378.5244 637.3753,377.3434 C636.7103,376.1634 635.8443,375.0524 635.0213,375.3274 C634.2773,375.8844 634.7733,377.2264 635.4223,378.2864 C636.0703,379.3454 636.9063,379.7984 637.6113,379.9824 L637.6113,379.9824 L637.6113,379.9824 Z" id="Stroke-1907" sketch:type="MSShapeGroup"></path>
            <path d="M639.2236,379.9824 C639.2236,379.9824 638.7956,378.5244 639.4606,377.3434 C640.1246,376.1634 640.9906,375.0524 641.8136,375.3274 C642.5586,375.8844 642.0616,377.2264 641.4136,378.2864 C640.7656,379.3454 639.9296,379.7984 639.2236,379.9824 L639.2236,379.9824 L639.2236,379.9824 Z" id="Stroke-1908" sketch:type="MSShapeGroup"></path>
            <path d="M637.6045,382.9863 C637.6045,382.9863 638.0325,384.4443 637.3675,385.6253 C636.7035,386.8053 635.8375,387.9163 635.0145,387.6413 C634.2695,387.0863 634.7665,385.7423 635.4145,384.6823 C636.0625,383.6223 636.8985,383.1713 637.6045,382.9863 L637.6045,382.9863 L637.6045,382.9863 Z" id="Stroke-1909" sketch:type="MSShapeGroup"></path>
            <path d="M639.2168,382.9863 C639.2168,382.9863 638.7888,384.4443 639.4528,385.6253 C640.1178,386.8053 640.9838,387.9163 641.8068,387.6413 C642.5508,387.0863 642.0548,385.7423 641.4058,384.6823 C640.7578,383.6223 639.9218,383.1713 639.2168,382.9863 L639.2168,382.9863 L639.2168,382.9863 Z" id="Stroke-1910" sketch:type="MSShapeGroup"></path>
            <path d="M1364.5,270.5 L1356.042,270.5 L1353,265.5 L1350,270.5 L1341.5,270.5 L1341.5,259.5 L1364.5,259.5 L1364.5,270.5 L1364.5,270.5 L1364.5,270.5 Z" id="Stroke-264" sketch:type="MSShapeGroup"></path>
            <path d="M1341.5,259.5 L1347.102,250.273 C1347.528,249.562 1348.449,249.331 1349.16,249.758" id="Stroke-265" sketch:type="MSShapeGroup"></path>
            <path d="M1364.5,259.5 L1358.897,250.273 C1358.471,249.562 1357.551,249.331 1356.839,249.758" id="Stroke-266" sketch:type="MSShapeGroup"></path>
            <path d="M1343.5,261.5 L1343.5,268.5 L1347.984,268.5 L1350.842,263.5 L1349.999,261.5 L1343.5,261.5 L1343.5,261.5 L1343.5,261.5 Z" id="Stroke-267" sketch:type="MSShapeGroup"></path>
            <path d="M1362.5,261.5 L1362.5,268.5 L1358.015,268.5 L1355.158,263.5 L1356.001,261.5 L1362.5,261.5 L1362.5,261.5 L1362.5,261.5 Z" id="Stroke-268" sketch:type="MSShapeGroup"></path>
            <path d="M1220.5,262.5 C1220.79,255.951 1216.04,250.5 1209.502,250.5 C1202.968,250.5 1198.21,255.947 1198.5,262.5 C1198.5,262.5 1198.487,260.5 1200.987,260.5 C1203.487,260.5 1203.502,262.5 1203.502,262.5 C1203.502,262.5 1204.002,260.5 1206.502,260.5 C1209.002,260.5 1209.502,262.5 1209.502,262.5 C1209.502,262.5 1210.502,260.5 1212.502,260.5 C1214.502,260.5 1215.502,262.5 1215.502,262.5 C1215.502,262.5 1216.013,260.5 1218.013,260.5 C1220.013,260.5 1220.5,262.5 1220.5,262.5 L1220.5,262.5 L1220.5,262.5 Z" id="Stroke-691" sketch:type="MSShapeGroup"></path>
            <path d="M1209.5,250.5 L1209.5,248.5" id="Stroke-692" sketch:type="MSShapeGroup"></path>
            <path d="M1212,270 C1212,271.5 1209.5,271.5 1209.5,270 L1209.5,262.5" id="Stroke-693" sketch:type="MSShapeGroup"></path>
            <path d="M199.5,386.5 L204.5,386.5 L206.5,384 L208.5,389 L212.5,383 L215.5,390 L217.5,386.5 L222.5,386.5" id="Stroke-299" sketch:type="MSShapeGroup"></path>
            <path d="M213.5,377 C213.5,377.277 213.276,377.5 213,377.5 C212.723,377.5 212.5,377.277 212.5,377 C212.5,376.725 212.723,376.5 213,376.5 C213.276,376.5 213.5,376.725 213.5,377 L213.5,377 L213.5,377 Z" id="Stroke-300" sketch:type="MSShapeGroup"></path>
            <path d="M216.5,377 C216.5,377.277 216.276,377.5 216,377.5 C215.723,377.5 215.5,377.277 215.5,377 C215.5,376.725 215.723,376.5 216,376.5 C216.276,376.5 216.5,376.725 216.5,377 L216.5,377 L216.5,377 Z" id="Stroke-301" sketch:type="MSShapeGroup"></path>
            <path d="M219.5,377 C219.5,377.277 219.276,377.5 219,377.5 C218.723,377.5 218.5,377.277 218.5,377 C218.5,376.725 218.723,376.5 219,376.5 C219.276,376.5 219.5,376.725 219.5,377 L219.5,377 L219.5,377 Z" id="Stroke-302" sketch:type="MSShapeGroup"></path>
            <path d="M222.5,393.5 L199.5,393.5 L199.5,374.5 L222.5,374.5 L222.5,393.5 L222.5,393.5 Z" id="Stroke-303" sketch:type="MSShapeGroup"></path>
            <path d="M199.5,379.5 L222.5,379.5" id="Stroke-304" sketch:type="MSShapeGroup"></path>
            <path d="M781.9053,267.5 L773.5003,267.5 C772.3953,267.5 771.5003,266.604 771.5003,265.5 L771.5003,251.5 C771.5003,250.396 772.3953,249.5 773.5003,249.5 L792.5003,249.5 C793.6043,249.5 794.5003,250.396 794.5003,251.5 L794.5003,265.5" id="Stroke-677" sketch:type="MSShapeGroup"></path>
            <path d="M771.5,254.5 L794.5,254.5" id="Stroke-678" sketch:type="MSShapeGroup"></path>
            <path d="M775.5,252 C775.5,252.276 775.275,252.5 775,252.5 C774.723,252.5 774.5,252.276 774.5,252 C774.5,251.724 774.723,251.5 775,251.5 C775.275,251.5 775.5,251.724 775.5,252 L775.5,252 L775.5,252 Z" id="Stroke-679" sketch:type="MSShapeGroup"></path>
            <path d="M778.5,252 C778.5,252.276 778.275,252.5 778,252.5 C777.723,252.5 777.5,252.276 777.5,252 C777.5,251.724 777.723,251.5 778,251.5 C778.275,251.5 778.5,251.724 778.5,252 L778.5,252 L778.5,252 Z" id="Stroke-680" sketch:type="MSShapeGroup"></path>
            <path d="M781.5,252 C781.5,252.276 781.275,252.5 781,252.5 C780.724,252.5 780.5,252.276 780.5,252 C780.5,251.724 780.724,251.5 781,251.5 C781.275,251.5 781.5,251.724 781.5,252 L781.5,252 L781.5,252 Z" id="Stroke-681" sketch:type="MSShapeGroup"></path>
            <path d="M792.1104,266.3057 C792.1104,268.4077 790.4064,270.1107 788.3054,270.1107 C786.2034,270.1107 784.5004,268.4077 784.5004,266.3057 C784.5004,264.2027 786.2034,262.4997 788.3054,262.4997 C790.4064,262.4997 792.1104,264.2027 792.1104,266.3057 L792.1104,266.3057 L792.1104,266.3057 Z" id="Stroke-682" sketch:type="MSShapeGroup"></path>
            <path d="M791,269 L794.5,272.5" id="Stroke-683" sketch:type="MSShapeGroup"></path>
            <path d="M774.5156,257.5 L778.4686,257.5" id="Stroke-684" sketch:type="MSShapeGroup"></path>
            <path d="M774.5156,263.5 L776.4686,263.5" id="Stroke-685" sketch:type="MSShapeGroup"></path>
            <path d="M774.5156,260.5 L779.4686,260.5" id="Stroke-686" sketch:type="MSShapeGroup"></path>
            <path d="M778.5156,263.5 L782.4686,263.5" id="Stroke-687" sketch:type="MSShapeGroup"></path>
            <path d="M781.5156,260.5 L786.4686,260.5" id="Stroke-688" sketch:type="MSShapeGroup"></path>
            <path d="M780.5156,257.5 L785.4846,257.5" id="Stroke-689" sketch:type="MSShapeGroup"></path>
            <path d="M787.5312,257.5 L791.5002,257.5" id="Stroke-690" sketch:type="MSShapeGroup"></path>
            <path d="M788.5312,260.5 L791.5002,260.5" id="Stroke-691" sketch:type="MSShapeGroup"></path>
            <path d="M354.5,259.5 L342.5,254.5 L342.5,267.5 L354.5,272.5 L354.5,259.5 L354.5,259.5 L354.5,259.5 Z" id="Stroke-1158" sketch:type="MSShapeGroup"></path>
            <path d="M354.5,259.5 L365.5,254.5 L365.5,267.5 L354.5,272.5 L354.5,259.5 L354.5,259.5 L354.5,259.5 Z" id="Stroke-1159" sketch:type="MSShapeGroup"></path>
            <path d="M342.5,254.5 L354,249.5 L365.5,254.5" id="Stroke-1160" sketch:type="MSShapeGroup"></path>
            <path d="M349.1875,251.5947 L360.2885,256.8727" id="Stroke-1161" sketch:type="MSShapeGroup"></path>
            <path d="M351.5,262 L345.5,259 L345.5,264 L351.5,267 L351.5,262 L351.5,262 L351.5,262 Z" id="Stroke-1162" sketch:type="MSShapeGroup"></path>
            <path d="M210.5508,261.5186 L205.7828,256.7636 L212.0618,250.4996 L221.4618,250.4996 L210.5508,261.5186 L210.5508,261.5186 L210.5508,261.5186 Z" id="Stroke-2839" sketch:type="MSShapeGroup"></path>
            <path d="M210.4619,261.5127 L215.2269,256.7447 L221.4999,263.0237 L221.4999,272.4237 L210.4619,261.5127 L210.4619,261.5127 L210.4619,261.5127 Z" id="Stroke-2840" sketch:type="MSShapeGroup"></path>
            <path d="M210.4492,261.4434 L215.2172,266.2164 L208.9382,272.5004 L199.5382,272.5004 L210.4492,261.4434 L210.4492,261.4434 L210.4492,261.4434 Z" id="Stroke-2841" sketch:type="MSShapeGroup"></path>
            <path d="M210.5381,261.4111 L205.7731,266.1791 L199.5001,259.9001 L199.5001,250.5001 L210.5381,261.4111 L210.5381,261.4111 L210.5381,261.4111 Z" id="Stroke-2842" sketch:type="MSShapeGroup"></path>
            <path d="M210.5,261.5 L210.5,252" id="Stroke-2843" sketch:type="MSShapeGroup"></path>
            <path d="M220.0205,261.5 L210.5205,261.5" id="Stroke-2844" sketch:type="MSShapeGroup"></path>
            <path d="M210.5,271 L210.5,261.479" id="Stroke-2845" sketch:type="MSShapeGroup"></path>
            <path d="M201.0781,261.5 L210.5001,261.5" id="Stroke-2846" sketch:type="MSShapeGroup"></path>
            <path d="M496.3881,394.3 L506.5881,394.3 L497.5881,386.8 L497.5881,379.8 C497.5881,378.418 496.4691,377.3 495.0881,377.3 C493.7071,377.3 492.5881,378.418 492.5881,379.8 L492.5881,386.8 L483.5881,394.3 L493.7881,394.3" id="Stroke-1" sketch:type="MSShapeGroup"></path>
            <path d="M494.5883,390.3 L495.5883,390.3 L496.5883,395.3 L493.5883,395.3 L494.5883,390.3 L494.5883,390.3 L494.5883,390.3 Z" id="Stroke-3" sketch:type="MSShapeGroup"></path>
            <path d="M489.5883,389.2219 L489.5883,377.7999 C489.5883,374.7619 492.0513,372.2999 495.0883,372.2999 C498.1253,372.2999 500.5883,374.7619 500.5883,377.7999 L500.5883,389.2059" id="Stroke-5" sketch:type="MSShapeGroup"></path>
            <path d="M504.5883,392.5705 L504.5883,380.3005 C504.5883,379.1955 503.6933,378.3005 502.5883,378.3005 C501.4843,378.3005 500.5883,379.1955 500.5883,380.3005 L500.5883,389.3005" id="Stroke-7" sketch:type="MSShapeGroup"></path>
            <path d="M485.5883,392.5705 L485.5883,380.3005 C485.5883,379.1955 486.4843,378.3005 487.5883,378.3005 C488.6933,378.3005 489.5883,379.1955 489.5883,380.3005 L489.5883,389.3005" id="Stroke-9" sketch:type="MSShapeGroup"></path>
            <path d="M494.5883,379.3 L495.5883,379.3 L496.0883,382.3 L494.0883,382.3 L494.5883,379.3 L494.5883,379.3 L494.5883,379.3 Z" id="Stroke-11" sketch:type="MSShapeGroup"></path>
            <path d="M926,376.6479 L926,374.4999 L924,374.4999 L924,376.6479 C922.553,377.0779 921.5,378.4159 921.5,379.9999 L921.5,395.5009 L928.5,395.5009 L928.5,379.9999 C928.5,378.4159 927.444,377.0779 926,376.6479 L926,376.6479 L926,376.6479 Z" id="Stroke-358" sketch:type="MSShapeGroup"></path>
            <path d="M919.5,372.5 L924,374.5 L923.977,374.5 C920.952,374.5 918.5,376.954 918.5,379.979 L918.5,392.5" id="Stroke-360" sketch:type="MSShapeGroup"></path>
            <path d="M935.5,372.5 L935.5,376.5 L928,375.5 L928,373.5 L935.5,372.5 L935.5,372.5 L935.5,372.5 Z" id="Stroke-362" sketch:type="MSShapeGroup"></path>
            <path d="M926,374.5 L928,374.5" id="Stroke-364" sketch:type="MSShapeGroup"></path>
            <path d="M928.5,392.5 L925.5,392.5 L925.5,381.5 L928.5,381.5" id="Stroke-366" sketch:type="MSShapeGroup"></path>
            <path d="M1068.6563,248.9976 C1070.2223,250.1496 1070.1353,252.3846 1069.5203,253.3156 C1069.0973,252.9696 1068.7213,252.5916 1068.6563,252.0206 C1067.2163,252.5916 1066.4983,253.7196 1066.4983,255.0436 C1066.4983,256.9516 1068.0443,258.4976 1069.9523,258.4976 C1071.8603,258.4976 1073.4063,256.9516 1073.4063,255.0436 C1073.4063,252.2566 1071.3993,249.6286 1068.6563,248.9976 L1068.6563,248.9976 L1068.6563,248.9976 Z" id="Stroke-3022" sketch:type="MSShapeGroup"></path>
            <path d="M1075.5,269.5 C1075.5,270.604 1074.604,271.5 1073.5,271.5 L1064.5,271.5 C1063.396,271.5 1062.5,270.604 1062.5,269.5 L1062.5,261.5 L1075.5,261.5 L1075.5,269.5 L1075.5,269.5 L1075.5,269.5 Z" id="Stroke-3023" sketch:type="MSShapeGroup"></path>
            <path d="M1056.5,252.5 C1056.5,250.291 1058.291,248.5 1060.5,248.5 L1062.5,248.5 L1062.5,261.5 L1060.5,261.5 C1058.291,261.5 1056.5,259.709 1056.5,257.5 L1056.5,252.5 L1056.5,252.5 L1056.5,252.5 Z" id="Stroke-3024" sketch:type="MSShapeGroup"></path>
            <path d="M1073.5,258.5 L1066.5,258.5 L1066.5,261.5 L1073.5,261.5 L1073.5,258.5 L1073.5,258.5 Z" id="Stroke-3025" sketch:type="MSShapeGroup"></path>
            <path d="M1069.5,386.5 L1056.5,386.5 L1056.5,382.5 L1069.5,382.5 L1069.5,386.5 L1069.5,386.5 Z" id="Stroke-3943" sketch:type="MSShapeGroup"></path>
            <path d="M1069.5,384.5 L1073.5,384.5" id="Stroke-3944" sketch:type="MSShapeGroup"></path>
            <path d="M1077.5,384.5 C1077.5,385.604 1076.604,386.5 1075.5,386.5 L1073.5,386.5 L1073.5,382.5 L1075.5,382.5 C1076.604,382.5 1077.5,383.396 1077.5,384.5 L1077.5,384.5 L1077.5,384.5 Z" id="Stroke-3945" sketch:type="MSShapeGroup"></path>
            <path d="M1066.5,382.5 L1058.5,382.5 C1056.291,382.5 1054.5,380.709 1054.5,378.5 C1054.5,376.291 1056.291,374.5 1058.5,374.5 L1066.5,374.5 L1066.5,382.5 L1066.5,382.5 L1066.5,382.5 Z" id="Stroke-3946" sketch:type="MSShapeGroup"></path>
            <path d="M1066.5,382.5 L1067.867,382.5 C1069.532,382.5 1071.107,381.746 1072.151,380.449 L1072.5,380.017 L1072.5,377 L1072.151,376.564 C1071.107,375.26 1069.527,374.5 1067.856,374.5 L1066.5,374.5 L1066.5,382.5 L1066.5,382.5 L1066.5,382.5 Z" id="Stroke-3947" sketch:type="MSShapeGroup"></path>
            <path d="M1066.5,386.5 L1060.5,386.5 L1057.5,393.5 L1063.5,393.5 L1066.5,386.5 L1066.5,386.5 L1066.5,386.5 Z" id="Stroke-3948" sketch:type="MSShapeGroup"></path>
            <path d="M1067,386.5 C1067,386.5 1066.797,390 1070,390" id="Stroke-3949" sketch:type="MSShapeGroup"></path>
            <path d="M1074,378.5 L1076,378.5" id="Stroke-3950" sketch:type="MSShapeGroup"></path>
            <path d="M1209.5,373.5 C1203.424,373.5 1198.5,378 1198.5,384.5 L1220.5,384.5 C1220.5,378 1215.574,373.5 1209.5,373.5 L1209.5,373.5 L1209.5,373.5 Z" id="Stroke-328" sketch:type="MSShapeGroup"></path>
            <path d="M1209.5,372.5 L1209.5,373.5" id="Stroke-330" sketch:type="MSShapeGroup"></path>
            <path d="M1209.5186,384.5 L1209.5186,395.5" id="Stroke-332" sketch:type="MSShapeGroup"></path>
            <path d="M1206.542,395.5 L1212.479,395.5" id="Stroke-334" sketch:type="MSShapeGroup"></path>
            <path d="M1211.5186,384.5215 L1211.5186,387.4795" id="Stroke-336" sketch:type="MSShapeGroup"></path>
            <path d="M1353.5,391 C1353.5,391 1359.459,398.54 1363,395 C1366.535,391.464 1359,385.5 1359,385.5 L1353.5,391 L1353.5,391 L1353.5,391 Z" id="Stroke-480" sketch:type="MSShapeGroup"></path>
            <path d="M1360,392 L1345.5,377.5" id="Stroke-481" sketch:type="MSShapeGroup"></path>
            <path d="M1345.5,373.5 L1345.5,377.5 L1341.5,377.5 L1345.5,373.5 L1345.5,373.5 L1345.5,373.5 Z" id="Stroke-482" sketch:type="MSShapeGroup"></path>
            <path d="M73.5186,381 C73.5186,385.418 69.9356,389 65.5186,389 C61.1006,389 57.5186,385.418 57.5186,381 C57.5186,376.582 61.1006,373 65.5186,373 C69.9356,373 73.5186,376.582 73.5186,381 L73.5186,381 L73.5186,381 Z" id="Stroke-230" sketch:type="MSShapeGroup"></path>
            <path d="M65.0186,392 L65.0186,393.5" id="Stroke-232" sketch:type="MSShapeGroup"></path>
            <path d="M66.0186,392 L66.0186,393.5" id="Stroke-234" sketch:type="MSShapeGroup"></path>
            <path d="M71.5,395.5 C69.83,394.249 67.765,393.5 65.519,393.5 C63.273,393.5 61.206,394.249 59.536,395.5 L71.5,395.5 L71.5,395.5 L71.5,395.5 Z" id="Stroke-236" sketch:type="MSShapeGroup"></path>
            <path d="M73.2964,373.2217 C77.5914,377.5177 77.5924,384.4827 73.2964,388.7787 C69.0014,393.0737 62.0364,393.0737 57.7404,388.7777" id="Stroke-238" sketch:type="MSShapeGroup"></path>
            <path d="M72.5894,373.9287 L74.0034,372.5147" id="Stroke-240" sketch:type="MSShapeGroup"></path>
            <path d="M57.0332,389.4849 L58.4472,388.0709" id="Stroke-242" sketch:type="MSShapeGroup"></path>
        </g>
    </g>
</svg>