<?xml version="1.0" encoding="UTF-8" standalone="no"?>
<svg width="84px" height="96px" viewBox="0 0 84 96" version="1.1" xmlns="http://www.w3.org/2000/svg" xmlns:xlink="http://www.w3.org/1999/xlink" xmlns:sketch="http://www.bohemiancoding.com/sketch/ns">
    <!-- Generator: Sketch 3.4.2 (15857) - http://www.bohemiancoding.com/sketch -->
    <title>4</title>
    <desc>Created with Sketch.</desc>
    <defs></defs>
    <g id="Page-1" stroke="none" stroke-width="1" fill="none" fill-rule="evenodd" sketch:type="MSPage">
        <g id="4" sketch:type="MSLayerGroup" transform="translate(2.000000, 2.000000)" stroke="#9CCC65" stroke-width="4" stroke-linecap="round" stroke-linejoin="round">
            <path d="M80,0 L12,0 C7.584,0 4,3.584 4,8 C4,12.416 7.584,16 12,16 L80,16 L80,92 L12,92 C7.584,92 4,88.42 4,84 L4,8" id="Stroke-1169" sketch:type="MSShapeGroup"></path>
            <path d="M12,8 L76,8" id="Stroke-1170" sketch:type="MSShapeGroup"></path>
            <path d="M0,28 L8,28" id="Stroke-1171" sketch:type="MSShapeGroup"></path>
            <path d="M0,40 L8,40" id="Stroke-1172" sketch:type="MSShapeGroup"></path>
            <path d="M0,52 L8,52" id="Stroke-1173" sketch:type="MSShapeGroup"></path>
            <path d="M0,64 L8,64" id="Stroke-1174" sketch:type="MSShapeGroup"></path>
            <path d="M0,76 L8,76" id="Stroke-1175" sketch:type="MSShapeGroup"></path>
            <path d="M59.3712,43.3712 C59.3712,51.8592 43.9992,75.1392 43.9992,75.1392 C43.9992,75.1392 28.6272,51.8592 28.6272,43.3712 C28.6272,34.8832 35.5112,27.9992 43.9992,27.9992 C52.4872,27.9992 59.3712,34.8832 59.3712,43.3712 L59.3712,43.3712 Z" id="Stroke-1176" sketch:type="MSShapeGroup"></path>
            <path d="M50.1484,43.3712 C50.1484,46.7672 47.3964,49.5192 44.0004,49.5192 C40.6004,49.5192 37.8524,46.7672 37.8524,43.3712 C37.8524,39.9752 40.6004,37.2232 44.0004,37.2232 C47.3964,37.2232 50.1484,39.9752 50.1484,43.3712 L50.1484,43.3712 Z" id="Stroke-1177" sketch:type="MSShapeGroup"></path>
        </g>
    </g>
</svg>