<svg width="48px" height="38px" viewBox="0 0 48 38" version="1.1" xmlns="http://www.w3.org/2000/svg" xmlns:xlink="http://www.w3.org/1999/xlink">
    <g id="Docs" stroke="none" stroke-width="1" fill="none" fill-rule="evenodd">
        <g id="Documentation" transform="translate(-1231.000000, -1312.000000)" fill="#99CE59">
            <g id="Categories" transform="translate(251.000000, 531.000000)">
                <g id="Card-Copy-20-+-Card-Copy-29-+-CartoDB-Editor-Copy-+-The-documentation-be" transform="translate(0.000000, 761.000000)">
                    <g id="Card-Copy-20" transform="translate(960.000000, 0.000000)">
                        <path d="M68,53 L68,25 C68,22.2391017 65.7616715,20 63,20 L25,20 C22.2397153,20 20,22.2397153 20,25 L20,53 C20,55.7602847 22.2397153,58 25,58 L63,58 C65.7616715,58 68,55.7608983 68,53 Z M66,53 C66,54.6564834 64.6569473,56 63,56 L25,56 C23.3442847,56 22,54.6557153 22,53 L22,25 C22,23.3442847 23.3442847,22 25,22 L63,22 C64.6569473,22 66,23.3435166 66,25 L66,53 Z M22,30 L66,30 L66,32 L22,32 L22,30 Z M35,32 L37,32 L37,56 L35,56 L35,32 Z M25,39 L30,39 L30,41 L25,41 L25,39 Z M25,35 L32,35 L32,37 L25,37 L25,35 Z M42,25.9864 C42,27.0904 41.104,27.9864 40,27.9864 C38.896,27.9864 38,27.0904 38,25.9864 C38,24.8824 38.896,23.9864 40,23.9864 C41.104,23.9864 42,24.8824 42,25.9864 Z M36,25.9864 C36,27.0904 35.104,27.9864 34,27.9864 C32.896,27.9864 32,27.0904 32,25.9864 C32,24.8824 32.896,23.9864 34,23.9864 C35.104,23.9864 36,24.8824 36,25.9864 Z M30,25.9864 C30,27.0904 29.104,27.9864 28,27.9864 C26.896,27.9864 26,27.0904 26,25.9864 C26,24.8824 26.896,23.9864 28,23.9864 C29.104,23.9864 30,24.8824 30,25.9864 Z" id="builder"></path>
                    </g>
                </g>
            </g>
        </g>
    </g>
</svg>
