<?xml version="1.0" encoding="UTF-8" standalone="no"?>
<svg width="96px" height="97px" viewBox="0 0 96 97" version="1.1" xmlns="http://www.w3.org/2000/svg" xmlns:xlink="http://www.w3.org/1999/xlink" xmlns:sketch="http://www.bohemiancoding.com/sketch/ns">
    <!-- Generator: Sketch 3.4.2 (15857) - http://www.bohemiancoding.com/sketch -->
    <title>5</title>
    <desc>Created with Sketch.</desc>
    <defs></defs>
    <g id="Page-1" stroke="none" stroke-width="1" fill="none" fill-rule="evenodd" sketch:type="MSPage">
        <g id="5" sketch:type="MSLayerGroup" transform="translate(2.000000, 2.000000)" stroke="#9CCC65" stroke-width="4" stroke-linecap="round" stroke-linejoin="round">
            <path d="M76,72.1095906 C76,74.3095906 74.2,76.1095906 72,76.1095906 L20,76.1095906 C17.8,76.1095906 16,74.3095906 16,72.1095906 L16,20.1095906 C16,17.9095906 17.8,16.1095906 20,16.1095906 L72,16.1095906 C74.2,16.1095906 76,17.9095906 76,20.1095906 L76,72.1095906 L76,72.1095906 Z" id="Stroke-948" sketch:type="MSShapeGroup"></path>
            <path d="M44,0.109590625 L44,16.1095906" id="Stroke-949" sketch:type="MSShapeGroup"></path>
            <path d="M28,0.109590625 L28,16.1095906" id="Stroke-950" sketch:type="MSShapeGroup"></path>
            <path d="M64,0.109590625 L64,16.1095906" id="Stroke-951" sketch:type="MSShapeGroup"></path>
            <path d="M0,48.1095906 L16,48.1095906" id="Stroke-952" sketch:type="MSShapeGroup"></path>
            <path d="M0,64.1095906 L16,64.1095906" id="Stroke-953" sketch:type="MSShapeGroup"></path>
            <path d="M0,28.1095906 L16,28.1095906" id="Stroke-954" sketch:type="MSShapeGroup"></path>
            <path d="M48,92.1095906 L48,76.1095906" id="Stroke-955" sketch:type="MSShapeGroup"></path>
            <path d="M64,92.1095906 L64,76.1095906" id="Stroke-956" sketch:type="MSShapeGroup"></path>
            <path d="M28,92.1095906 L28,76.1095906" id="Stroke-957" sketch:type="MSShapeGroup"></path>
            <path d="M92,44.1095906 L76,44.1095906" id="Stroke-958" sketch:type="MSShapeGroup"></path>
            <path d="M92,28.1095906 L76,28.1095906" id="Stroke-959" sketch:type="MSShapeGroup"></path>
            <path d="M92,64.1095906 L76,64.1095906" id="Stroke-960" sketch:type="MSShapeGroup"></path>
            <path d="M68,60.1095906 C68,64.5135906 64.4,68.1095906 60,68.1095906 L32,68.1095906 C27.6,68.1095906 24,64.5135906 24,60.1095906 L24,32.1095906 C24,27.7095906 27.6,24.1095906 32,24.1095906 L60,24.1095906 C64.4,24.1095906 68,27.7095906 68,32.1095906 L68,60.1095906 L68,60.1095906 Z" id="Stroke-961" sketch:type="MSShapeGroup"></path>
            <path d="M56.742,54.1095906 L56.742,38.4455906 L49.826,48.4055906 L58.002,48.4055906" id="Stroke-962" sketch:type="MSShapeGroup"></path>
            <path d="M40,44.8595906 C43.48,44.8595906 44.088,47.8275906 44.088,49.4755906 C44.088,51.1315906 43.48,54.1115906 40,54.1115906 C36.52,54.1115906 35.912,51.1315906 35.912,49.4755906 C35.912,47.8275906 36.52,44.8595906 40,44.8595906 L40,44.8595906 Z" id="Stroke-963" sketch:type="MSShapeGroup"></path>
            <path d="M41.9492,38.2735906 C36.8092,38.2735906 35.9132,42.6735906 35.9132,45.1095906 L35.9132,49.4775906" id="Stroke-964" sketch:type="MSShapeGroup"></path>
        </g>
    </g>
</svg>