<?xml version="1.0" encoding="UTF-8" standalone="no"?>
<svg width="96px" height="85px" viewBox="0 0 96 85" version="1.1" xmlns="http://www.w3.org/2000/svg" xmlns:xlink="http://www.w3.org/1999/xlink" xmlns:sketch="http://www.bohemiancoding.com/sketch/ns">
    <!-- Generator: Sketch 3.3.3 (12081) - http://www.bohemiancoding.com/sketch -->
    <title>editor</title>
    <desc>Created with Sketch.</desc>
    <defs></defs>
    <g id="Page-1" stroke="none" stroke-width="1" fill="none" fill-rule="evenodd" sketch:type="MSPage">
        <g id="editor" sketch:type="MSLayerGroup" transform="translate(2.000000, 2.000000)" stroke="#9CCC65" stroke-width="4" stroke-linejoin="round">
            <path d="M92,65.7579906 C92,69.2659906 89.316,72.1099906 86,72.1099906 L6,72.1099906 C2.688,72.1099906 0,69.2659906 0,65.7579906 L0,6.46199062 C0,2.95399062 2.688,0.109990625 6,0.109990625 L86,0.109990625 C89.316,0.109990625 92,2.95399062 92,6.46199062 L92,65.7579906 L92,65.7579906 Z" id="Stroke-21" stroke-linecap="round" sketch:type="MSShapeGroup"></path>
            <path d="M18,80.1095906 L74,80.1095906" id="Stroke-22" stroke-linecap="round" sketch:type="MSShapeGroup"></path>
            <path d="M46,72.1095906 L46,80.1095906" id="Stroke-23" stroke-linecap="round" sketch:type="MSShapeGroup"></path>
            <path d="M48,64.1095906 C48,65.2135906 47.104,66.1095906 46,66.1095906 C44.896,66.1095906 44,65.2135906 44,64.1095906 C44,63.0055906 44.896,62.1095906 46,62.1095906 C47.104,62.1095906 48,63.0055906 48,64.1095906 L48,64.1095906 Z" id="Stroke-24" sketch:type="MSShapeGroup"></path>
            <path d="M0,56.1095906 L92,56.1095906" id="Stroke-25" sketch:type="MSShapeGroup"></path>
        </g>
    </g>
</svg>