<?xml version="1.0" encoding="UTF-8" standalone="no"?>
<svg width="92px" height="96px" viewBox="0 0 92 96" version="1.1" xmlns="http://www.w3.org/2000/svg" xmlns:xlink="http://www.w3.org/1999/xlink" xmlns:sketch="http://www.bohemiancoding.com/sketch/ns">
    <!-- Generator: Sketch 3.4.2 (15857) - http://www.bohemiancoding.com/sketch -->
    <title>1</title>
    <desc>Created with Sketch.</desc>
    <defs></defs>
    <g id="Page-1" stroke="none" stroke-width="1" fill="none" fill-rule="evenodd" sketch:type="MSPage">
        <g id="1" sketch:type="MSLayerGroup" transform="translate(2.000000, 2.000000)" stroke="#9CCC65" stroke-width="4" stroke-linejoin="round">
            <path d="M0,68 L48,20" id="Stroke-139" stroke-linecap="round" sketch:type="MSShapeGroup"></path>
            <path d="M32,36 L64,67.748" id="Stroke-140" stroke-linecap="round" sketch:type="MSShapeGroup"></path>
            <path d="M80,46 L80,77.644 C80,81.16 77.312,84 74,84 L6,84 C2.688,84 0,81.16 0,77.644 L0,26.36 C0,22.844 2.688,20 6,20 L48,20" id="Stroke-141" stroke-linecap="round" sketch:type="MSShapeGroup"></path>
            <path d="M14,92 L66,92" id="Stroke-142" stroke-linecap="round" sketch:type="MSShapeGroup"></path>
            <path d="M40,84 L40,92" id="Stroke-143" stroke-linecap="round" sketch:type="MSShapeGroup"></path>
            <path d="M42,76 C42,77.104 41.1,78 40,78 C38.896,78 38,77.104 38,76 C38,74.896 38.896,74 40,74 C41.1,74 42,74.896 42,76 L42,76 Z" id="Stroke-144" sketch:type="MSShapeGroup"></path>
            <path d="M0,68 L80,68" id="Stroke-145" sketch:type="MSShapeGroup"></path>
            <path d="M88,16 C88,24.836 72,44 72,44 C72,44 56,24.836 56,16 C56,7.16 63.16,0 72,0 C80.836,0 88,7.16 88,16 L88,16 Z" id="Stroke-146" stroke-linecap="round" sketch:type="MSShapeGroup"></path>
            <path d="M78,16 C78,19.316 75.312,22 72,22 C68.68,22 66,19.316 66,16 C66,12.684 68.68,10 72,10 C75.312,10 78,12.684 78,16 L78,16 Z" id="Stroke-147" stroke-linecap="round" sketch:type="MSShapeGroup"></path>
        </g>
    </g>
</svg>