<?xml version="1.0" encoding="UTF-8" standalone="no"?>
<svg width="96px" height="96px" viewBox="0 0 96 96" version="1.1" xmlns="http://www.w3.org/2000/svg" xmlns:xlink="http://www.w3.org/1999/xlink" xmlns:sketch="http://www.bohemiancoding.com/sketch/ns">
    <!-- Generator: Sketch 3.4.2 (15857) - http://www.bohemiancoding.com/sketch -->
    <title>6</title>
    <desc>Created with Sketch.</desc>
    <defs></defs>
    <g id="Page-1" stroke="none" stroke-width="1" fill="none" fill-rule="evenodd" sketch:type="MSPage">
        <g id="6" sketch:type="MSLayerGroup" transform="translate(2.000000, 2.000000)" stroke="#9CCC65" stroke-width="4" stroke-linejoin="round">
            <path d="M20,20 L0,20 L0,92 L20,92 L20,20 Z" id="Stroke-7180" sketch:type="MSShapeGroup"></path>
            <path d="M92,0 L20,0 L20,20 L92,20 L92,0 Z" id="Stroke-7181" sketch:type="MSShapeGroup"></path>
            <path d="M0,0 L20,0 L20,20 L0,20 L0,0 Z" id="Stroke-7182" sketch:type="MSShapeGroup"></path>
            <path d="M70,92 L20,92 L20,20 L92,20 L92,70 L70,92 L70,92 Z" id="Stroke-7183" sketch:type="MSShapeGroup"></path>
            <path d="M68,92 L68,68 L92,68" id="Stroke-7184" sketch:type="MSShapeGroup"></path>
            <path d="M32,20 L32,6" id="Stroke-7185" sketch:type="MSShapeGroup"></path>
            <path d="M48,20 L48,10" id="Stroke-7186" sketch:type="MSShapeGroup"></path>
            <path d="M64,20 L64,10" id="Stroke-7187" sketch:type="MSShapeGroup"></path>
            <path d="M80,20 L80,6" id="Stroke-7188" sketch:type="MSShapeGroup"></path>
            <path d="M20,80 L6,80" id="Stroke-7189" sketch:type="MSShapeGroup"></path>
            <path d="M20,64 L10,64" id="Stroke-7190" sketch:type="MSShapeGroup"></path>
            <path d="M20,48 L10,48" id="Stroke-7191" sketch:type="MSShapeGroup"></path>
            <path d="M20,32 L6,32" id="Stroke-7192" sketch:type="MSShapeGroup"></path>
        </g>
    </g>
</svg>