<?xml version="1.0" encoding="UTF-8" standalone="no"?>
<svg width="96px" height="77px" viewBox="0 0 96 77" version="1.1" xmlns="http://www.w3.org/2000/svg" xmlns:xlink="http://www.w3.org/1999/xlink" xmlns:sketch="http://www.bohemiancoding.com/sketch/ns">
    <!-- Generator: Sketch 3.4.2 (15857) - http://www.bohemiancoding.com/sketch -->
    <title>3</title>
    <desc>Created with Sketch.</desc>
    <defs></defs>
    <g id="Page-1" stroke="none" stroke-width="1" fill="none" fill-rule="evenodd" sketch:type="MSPage">
        <g id="3" sketch:type="MSLayerGroup" transform="translate(2.000000, 2.000000)" stroke="#9CCC65" stroke-width="4" stroke-linecap="round" stroke-linejoin="round">
            <path d="M92,64.9728 C92,69.3888 88.42,72.9728 84,72.9728 L8,72.9728 C3.584,72.9728 0,69.3888 0,64.9728 L0,8.9728 C0,4.5568 3.584,0.9728 8,0.9728 L84,0.9728 C88.42,0.9728 92,4.5568 92,8.9728 L92,64.9728 L92,64.9728 Z" id="Stroke-11" sketch:type="MSShapeGroup"></path>
            <path d="M0,20.9728 L92,20.9728" id="Stroke-13" sketch:type="MSShapeGroup"></path>
            <path d="M16,10.9728 C16,12.0768 15.104,12.9728 14,12.9728 C12.896,12.9728 12,12.0768 12,10.9728 C12,9.8688 12.896,8.9728 14,8.9728 C15.104,8.9728 16,9.8688 16,10.9728 L16,10.9728 Z" id="Stroke-15" sketch:type="MSShapeGroup"></path>
            <path d="M28,10.9728 C28,12.0768 27.104,12.9728 26,12.9728 C24.896,12.9728 24,12.0768 24,10.9728 C24,9.8688 24.896,8.9728 26,8.9728 C27.104,8.9728 28,9.8688 28,10.9728 L28,10.9728 Z" id="Stroke-17" sketch:type="MSShapeGroup"></path>
            <path d="M40,10.9728 C40,12.0768 39.104,12.9728 38,12.9728 C36.896,12.9728 36,12.0768 36,10.9728 C36,9.8688 36.896,8.9728 38,8.9728 C39.104,8.9728 40,9.8688 40,10.9728 L40,10.9728 Z" id="Stroke-19" sketch:type="MSShapeGroup"></path>
            <path d="M20,36.9728 L30,46.9728 L20,56.9728" id="Stroke-21" sketch:type="MSShapeGroup"></path>
            <path d="M44,48.9728 L60,48.9728" id="Stroke-23" sketch:type="MSShapeGroup"></path>
        </g>
    </g>
</svg>